<svg version="1.1" viewBox="0.0 0.0 960.0 540.0" fill="none" stroke="none" stroke-linecap="square" stroke-miterlimit="10" xmlns:xlink="http://www.w3.org/1999/xlink" xmlns="http://www.w3.org/2000/svg"><clipPath id="g118ceb2a7f8_0_0.0"><path d="m0 0l960.0 0l0 540.0l-960.0 0l0 -540.0z" clip-rule="nonzero"/></clipPath><g clip-path="url(#g118ceb2a7f8_0_0.0)"><path fill="#ffffff" d="m0 0l960.0 0l0 540.0l-960.0 0z" fill-rule="evenodd"/><path fill="#ffab40" d="m-0.015748031 0l960.0 0l0 540.0l-960.0 0z" fill-rule="evenodd"/><path stroke="#595959" stroke-width="1.0" stroke-linejoin="round" stroke-linecap="butt" d="m-0.015748031 0l960.0 0l0 540.0l-960.0 0z" fill-rule="evenodd"/><path fill="#ffffff" d="m77.67175 232.6275l37.9375 0l0 9.78125l-23.75 0l0 7.28125l22.03125 0l0 9.34375l-22.03125 0l0 9.03125l24.4375 0l0 10.375l-38.625 0l0 -45.8125zm41.625 12.625l13.25 0l6.4375 21.03125l6.65625 -21.03125l12.84375 0l-14.09375 33.1875l-11.28125 0l-13.8125 -33.1875zm78.0625 19.75l-25.5 0q0.34375 3.0625 1.65625 4.5625q1.84375 2.15625 4.8125 2.15625q1.875 0 3.5625 -0.9375q1.03125 -0.59375 2.21875 -2.09375l12.53125 1.15625q-2.875 5.0 -6.9375 7.171875q-4.0625 2.171875 -11.65625 2.171875q-6.59375 0 -10.375 -1.859375q-3.78125 -1.859375 -6.265625 -5.90625q-2.484375 -4.046875 -2.484375 -9.515625q0 -7.78125 4.984375 -12.59375q4.984375 -4.8125 13.765625 -4.8125q7.125 0 11.25 2.15625q4.125 2.15625 6.28125 6.25q2.15625 4.09375 2.15625 10.65625l0 1.4375zm-12.9375 -6.09375q-0.375 -3.6875 -1.984375 -5.28125q-1.609375 -1.59375 -4.234375 -1.59375q-3.03125 0 -4.84375 2.40625q-1.15625 1.5 -1.46875 4.46875l12.53125 0zm18.78125 -13.65625l11.84375 0l0 5.40625q2.65625 -3.3125 5.375 -4.734375q2.71875 -1.421875 6.625 -1.421875q5.28125 0 8.265625 3.140625q2.984375 3.140625 2.984375 9.703125l0 21.09375l-12.78125 0l0 -18.25q0 -3.125 -1.15625 -4.421875q-1.15625 -1.296875 -3.25 -1.296875q-2.3125 0 -3.75 1.75q-1.4375 1.75 -1.4375 6.28125l0 15.9375l-12.71875 0l0 -33.1875zm58.03125 -12.625l0 12.625l7.0 0l0 9.28125l-7.0 0l0 11.78125q0 2.125 0.40625 2.8125q0.625 1.0625 2.1875 1.0625q1.40625 0 3.9375 -0.8125l0.9375 8.78125q-4.71875 1.03125 -8.8125 1.03125q-4.75 0 -7.0 -1.21875q-2.25 -1.21875 -3.328125 -3.703125q-1.078125 -2.484375 -1.078125 -8.046875l0 -11.6875l-4.6875 0l0 -9.28125l4.6875 0l0 -6.09375l12.75 -6.53125z" fill-rule="nonzero"/><path fill="#ffffff" d="m76.18347 322.08688l-2.265625 0q-1.796875 -2.703125 -2.734375 -5.625q-0.9375 -2.921875 -0.9375 -5.640625q0 -3.390625 1.171875 -6.421875q1.0 -2.625 2.546875 -4.828125l2.25 0q-1.609375 3.546875 -2.21875 6.046875q-0.59375 2.484375 -0.59375 5.265625q0 1.921875 0.359375 3.9375q0.359375 2.015625 0.984375 3.84375q0.40625 1.1875 1.4375 3.421875zm6.4140625 -5.046875l0 -14.28125l-5.09375 0l0 -2.90625l13.65625 0l0 2.90625l-5.09375 0l0 14.28125l-3.46875 0zm7.4414062 -12.453125l3.5 0l2.96875 8.84375l2.90625 -8.84375l3.421875 0l-4.40625 11.984375l-0.78125 2.171875q-0.4375 1.09375 -0.828125 1.65625q-0.390625 0.578125 -0.90625 0.9375q-0.5 0.359375 -1.25 0.546875q-0.734375 0.203125 -1.671875 0.203125q-0.953125 0 -1.875 -0.1875l-0.28125 -2.578125q0.765625 0.140625 1.390625 0.140625q1.140625 0 1.6875 -0.671875q0.5625 -0.671875 0.859375 -1.71875l-4.734375 -12.484375zm14.800781 0l3.078125 0l0 1.828125q0.59375 -0.9375 1.609375 -1.515625q1.03125 -0.59375 2.265625 -0.59375q2.171875 0 3.671875 1.703125q1.515625 1.703125 1.515625 4.734375q0 3.125 -1.53125 4.859375q-1.515625 1.71875 -3.671875 1.71875q-1.03125 0 -1.875 -0.40625q-0.84375 -0.421875 -1.765625 -1.40625l0 6.265625l-3.296875 0l0 -17.1875zm3.265625 6.015625q0 2.09375 0.828125 3.109375q0.828125 1.0 2.03125 1.0q1.140625 0 1.90625 -0.921875q0.765625 -0.921875 0.765625 -3.015625q0 -1.96875 -0.796875 -2.90625q-0.78125 -0.953125 -1.9375 -0.953125q-1.203125 0 -2.0 0.9375q-0.796875 0.921875 -0.796875 2.75zm18.707031 2.46875l3.28125 0.5625q-0.640625 1.796875 -2.015625 2.75q-1.359375 0.9375 -3.40625 0.9375q-3.25 0 -4.796875 -2.125q-1.234375 -1.703125 -1.234375 -4.28125q0 -3.09375 1.609375 -4.84375q1.625 -1.765625 4.09375 -1.765625q2.78125 0 4.375 1.84375q1.609375 1.828125 1.546875 5.609375l-8.25 0q0.03125 1.46875 0.796875 2.28125q0.765625 0.8125 1.890625 0.8125q0.78125 0 1.296875 -0.421875q0.53125 -0.421875 0.8125 -1.359375zm0.1875 -3.328125q-0.046875 -1.421875 -0.75 -2.15625q-0.703125 -0.75 -1.703125 -0.75q-1.078125 0 -1.78125 0.78125q-0.703125 0.78125 -0.6875 2.125l4.921875 0zm4.7851562 3.75l3.3125 -0.515625q0.203125 0.96875 0.84375 1.46875q0.65625 0.5 1.8125 0.5q1.28125 0 1.921875 -0.46875q0.4375 -0.328125 0.4375 -0.890625q0 -0.375 -0.234375 -0.609375q-0.25 -0.234375 -1.109375 -0.4375q-3.984375 -0.875 -5.046875 -1.609375q-1.484375 -1.0 -1.484375 -2.796875q0 -1.625 1.28125 -2.71875q1.28125 -1.109375 3.96875 -1.109375q2.546875 0 3.78125 0.84375q1.25 0.828125 1.71875 2.453125l-3.109375 0.578125q-0.1875 -0.734375 -0.75 -1.109375q-0.5625 -0.390625 -1.59375 -0.390625q-1.296875 0 -1.859375 0.359375q-0.375 0.265625 -0.375 0.671875q0 0.34375 0.328125 0.59375q0.453125 0.328125 3.078125 0.9375q2.625 0.59375 3.671875 1.453125q1.03125 0.875 1.03125 2.453125q0 1.703125 -1.4375 2.9375q-1.421875 1.234375 -4.21875 1.234375q-2.546875 0 -4.03125 -1.03125q-1.484375 -1.03125 -1.9375 -2.796875zm16.972656 -5.109375l-2.984375 -0.53125q0.5 -1.8125 1.71875 -2.671875q1.234375 -0.875 3.671875 -0.875q2.203125 0 3.28125 0.53125q1.078125 0.515625 1.515625 1.328125q0.4375 0.796875 0.4375 2.9375l-0.03125 3.84375q0 1.640625 0.15625 2.421875q0.15625 0.78125 0.59375 1.671875l-3.265625 0q-0.125 -0.328125 -0.3125 -0.96875q-0.078125 -0.296875 -0.125 -0.390625q-0.84375 0.8125 -1.8125 1.234375q-0.953125 0.40625 -2.03125 0.40625q-1.921875 0 -3.03125 -1.046875q-1.109375 -1.046875 -1.109375 -2.640625q0 -1.046875 0.5 -1.875q0.5 -0.828125 1.40625 -1.265625q0.921875 -0.4375 2.625 -0.765625q2.3125 -0.4375 3.203125 -0.8125l0 -0.328125q0 -0.953125 -0.46875 -1.34375q-0.46875 -0.40625 -1.765625 -0.40625q-0.890625 0 -1.390625 0.34375q-0.484375 0.34375 -0.78125 1.203125zm4.40625 2.671875q-0.640625 0.21875 -2.015625 0.515625q-1.359375 0.28125 -1.78125 0.5625q-0.640625 0.46875 -0.640625 1.171875q0 0.6875 0.515625 1.1875q0.515625 0.5 1.3125 0.5q0.890625 0 1.6875 -0.578125q0.609375 -0.453125 0.796875 -1.09375q0.125 -0.421875 0.125 -1.609375l0 -0.65625zm5.0351562 -6.46875l1.828125 0l0 -0.9375q0 -1.5625 0.328125 -2.328125q0.34375 -0.78125 1.234375 -1.265625q0.90625 -0.484375 2.265625 -0.484375q1.40625 0 2.765625 0.421875l-0.453125 2.296875q-0.78125 -0.1875 -1.515625 -0.1875q-0.703125 0 -1.015625 0.328125q-0.3125 0.328125 -0.3125 1.28125l0 0.875l2.453125 0l0 2.59375l-2.453125 0l0 9.859375l-3.296875 0l0 -9.859375l-1.828125 0l0 -2.59375zm16.648438 8.484375l3.28125 0.5625q-0.640625 1.796875 -2.015625 2.75q-1.359375 0.9375 -3.40625 0.9375q-3.25 0 -4.796875 -2.125q-1.234375 -1.703125 -1.234375 -4.28125q0 -3.09375 1.609375 -4.84375q1.625 -1.765625 4.09375 -1.765625q2.78125 0 4.375 1.84375q1.609375 1.828125 1.546875 5.609375l-8.25 0q0.03125 1.46875 0.796875 2.28125q0.765625 0.8125 1.890625 0.8125q0.78125 0 1.296875 -0.421875q0.53125 -0.421875 0.8125 -1.359375zm0.1875 -3.328125q-0.046875 -1.421875 -0.75 -2.15625q-0.703125 -0.75 -1.703125 -0.75q-1.078125 0 -1.78125 0.78125q-0.703125 0.78125 -0.6875 2.125l4.921875 0zm27.234375 7.296875l-3.765625 0l-1.5 -3.90625l-6.875 0l-1.40625 3.90625l-3.6875 0l6.6875 -17.1875l3.671875 0l6.875 17.1875zm-6.375 -6.796875l-2.375 -6.375l-2.3125 6.375l4.6875 0zm19.050781 -1.96875l-3.25 0.578125q-0.15625 -0.96875 -0.75 -1.453125q-0.578125 -0.5 -1.5 -0.5q-1.234375 0 -1.96875 0.859375q-0.71875 0.84375 -0.71875 2.828125q0 2.21875 0.734375 3.140625q0.75 0.90625 2.0 0.90625q0.9375 0 1.53125 -0.53125q0.609375 -0.53125 0.84375 -1.828125l3.234375 0.546875q-0.5 2.21875 -1.9375 3.359375q-1.421875 1.140625 -3.828125 1.140625q-2.71875 0 -4.34375 -1.71875q-1.625 -1.734375 -1.625 -4.78125q0 -3.078125 1.625 -4.796875q1.625 -1.71875 4.40625 -1.71875q2.28125 0 3.609375 0.984375q1.34375 0.984375 1.9375 2.984375zm8.207031 -3.6875l0 2.625l-2.25 0l0 5.015625q0 1.53125 0.0625 1.78125q0.0625 0.25 0.28125 0.421875q0.234375 0.15625 0.5625 0.15625q0.453125 0 1.328125 -0.3125l0.28125 2.546875q-1.15625 0.5 -2.609375 0.5q-0.890625 0 -1.609375 -0.296875q-0.703125 -0.296875 -1.046875 -0.765625q-0.328125 -0.484375 -0.453125 -1.296875q-0.109375 -0.578125 -0.109375 -2.3125l0 -5.4375l-1.515625 0l0 -2.625l1.515625 0l0 -2.46875l3.3125 -1.921875l0 4.390625l2.25 0zm2.2734375 -1.6875l0 -3.046875l3.296875 0l0 3.046875l-3.296875 0zm0 14.140625l0 -12.453125l3.296875 0l0 12.453125l-3.296875 0zm5.9179688 -6.40625q0 -1.640625 0.796875 -3.171875q0.8125 -1.53125 2.296875 -2.34375q1.484375 -0.8125 3.3125 -0.8125q2.828125 0 4.625 1.84375q1.8125 1.828125 1.8125 4.625q0 2.828125 -1.828125 4.6875q-1.828125 1.859375 -4.59375 1.859375q-1.703125 0 -3.265625 -0.765625q-1.546875 -0.78125 -2.359375 -2.265625q-0.796875 -1.5 -0.796875 -3.65625zm3.375 0.1875q0 1.84375 0.875 2.828125q0.875 0.984375 2.171875 0.984375q1.28125 0 2.15625 -0.984375q0.875 -0.984375 0.875 -2.859375q0 -1.828125 -0.875 -2.8125q-0.875 -0.984375 -2.15625 -0.984375q-1.296875 0 -2.171875 0.984375q-0.875 0.984375 -0.875 2.84375zm23.363281 6.21875l-3.296875 0l0 -6.359375q0 -2.015625 -0.21875 -2.59375q-0.203125 -0.59375 -0.6875 -0.921875q-0.46875 -0.328125 -1.125 -0.328125q-0.859375 0 -1.546875 0.46875q-0.671875 0.46875 -0.921875 1.25q-0.25 0.765625 -0.25 2.84375l0 5.640625l-3.296875 0l0 -12.453125l3.0625 0l0 1.828125q1.625 -2.109375 4.09375 -2.109375q1.09375 0 1.984375 0.40625q0.90625 0.390625 1.375 1.0q0.46875 0.609375 0.640625 1.390625q0.1875 0.765625 0.1875 2.203125l0 7.734375zm2.1757812 -3.546875l3.3125 -0.515625q0.203125 0.96875 0.84375 1.46875q0.65625 0.5 1.8125 0.5q1.28125 0 1.921875 -0.46875q0.4375 -0.328125 0.4375 -0.890625q0 -0.375 -0.234375 -0.609375q-0.25 -0.234375 -1.109375 -0.4375q-3.984375 -0.875 -5.046875 -1.609375q-1.484375 -1.0 -1.484375 -2.796875q0 -1.625 1.28125 -2.71875q1.28125 -1.109375 3.96875 -1.109375q2.546875 0 3.78125 0.84375q1.25 0.828125 1.71875 2.453125l-3.109375 0.578125q-0.1875 -0.734375 -0.75 -1.109375q-0.5625 -0.390625 -1.59375 -0.390625q-1.296875 0 -1.859375 0.359375q-0.375 0.265625 -0.375 0.671875q0 0.34375 0.328125 0.59375q0.453125 0.328125 3.078125 0.9375q2.625 0.59375 3.671875 1.453125q1.03125 0.875 1.03125 2.453125q0 1.703125 -1.4375 2.9375q-1.421875 1.234375 -4.21875 1.234375q-2.546875 0 -4.03125 -1.03125q-1.484375 -1.03125 -1.9375 -2.796875zm13.597656 8.59375q0.96875 -2.078125 1.359375 -3.203125q0.40625 -1.109375 0.75 -2.5625q0.34375 -1.453125 0.5 -2.75q0.171875 -1.3125 0.171875 -2.6875q0 -2.78125 -0.609375 -5.265625q-0.59375 -2.5 -2.203125 -6.046875l2.25 0q1.765625 2.515625 2.734375 5.34375q0.984375 2.8125 0.984375 5.71875q0 2.453125 -0.765625 5.25q-0.890625 3.15625 -2.90625 6.203125l-2.265625 0z" fill-rule="nonzero"/><path fill="#fff2cc" d="m397.23257 30.72441l445.45615 0c21.153687 0 41.44098 8.403276 56.398926 23.3612c14.957886 14.957924 23.361145 35.245224 23.361145 56.398926l0 398.79108c0 0.0027770996 -0.0022583008 0.0050354004 -0.005004883 0.0050354004l-604.9713 -0.0050354004l0 0c-0.0027770996 0 -0.0050354004 -0.0022583008 -0.0050354004 -0.005065918l0.0050354004 -398.786l0 0c0 -44.0503 35.70981 -79.760124 79.76013 -79.760124z" fill-rule="evenodd"/><path stroke="#d9d9d9" stroke-width="1.0" stroke-linejoin="round" stroke-linecap="butt" d="m397.23257 30.72441l445.45615 0c21.153687 0 41.44098 8.403276 56.398926 23.3612c14.957886 14.957924 23.361145 35.245224 23.361145 56.398926l0 398.79108c0 0.0027770996 -0.0022583008 0.0050354004 -0.005004883 0.0050354004l-604.9713 -0.0050354004l0 0c-0.0027770996 0 -0.0050354004 -0.0022583008 -0.0050354004 -0.005065918l0.0050354004 -398.786l0 0c0 -44.0503 35.70981 -79.760124 79.76013 -79.760124z" fill-rule="evenodd"/><path fill="#595959" d="m492.3161 264.4011l13.96875 0l5.390625 20.90625l5.359375 -20.90625l13.921875 0l0 34.359375l-8.671875 0l0 -26.203125l-6.71875 26.203125l-7.859375 0l-6.703125 -26.203125l0 26.203125l-8.6875 0l0 -34.359375zm72.41406 24.28125l-19.125 0q0.265625 2.296875 1.25 3.421875q1.375 1.609375 3.609375 1.609375q1.40625 0 2.671875 -0.703125q0.765625 -0.4375 1.65625 -1.5625l9.40625 0.859375q-2.15625 3.75 -5.203125 5.390625q-3.046875 1.625 -8.75 1.625q-4.9375 0 -7.78125 -1.390625q-2.828125 -1.40625 -4.703125 -4.4375q-1.859375 -3.03125 -1.859375 -7.140625q0 -5.828125 3.734375 -9.4375q3.75 -3.609375 10.328125 -3.609375q5.34375 0 8.4375 1.625q3.09375 1.609375 4.703125 4.6875q1.625 3.0625 1.625 7.984375l0 1.078125zm-9.703125 -4.578125q-0.28125 -2.765625 -1.484375 -3.953125q-1.203125 -1.203125 -3.171875 -1.203125q-2.28125 0 -3.640625 1.8125q-0.859375 1.125 -1.09375 3.34375l9.390625 0zm12.40625 7.765625l9.46875 -0.890625q0.578125 1.6875 1.625 2.421875q1.0625 0.71875 2.828125 0.71875q1.921875 0 2.96875 -0.828125q0.828125 -0.609375 0.828125 -1.515625q0 -1.03125 -1.078125 -1.59375q-0.78125 -0.40625 -4.109375 -0.984375q-4.96875 -0.875 -6.90625 -1.609375q-1.921875 -0.734375 -3.25 -2.484375q-1.328125 -1.765625 -1.328125 -4.015625q0 -2.46875 1.421875 -4.25q1.4375 -1.78125 3.9375 -2.65625q2.515625 -0.875 6.734375 -0.875q4.453125 0 6.578125 0.6875q2.125 0.671875 3.53125 2.109375q1.421875 1.421875 2.359375 3.859375l-9.046875 0.890625q-0.34375 -1.203125 -1.171875 -1.765625q-1.125 -0.75 -2.71875 -0.75q-1.609375 0 -2.359375 0.578125q-0.734375 0.578125 -0.734375 1.390625q0 0.921875 0.9375 1.390625q0.9375 0.46875 4.078125 0.84375q4.765625 0.53125 7.078125 1.5q2.328125 0.953125 3.546875 2.734375q1.234375 1.78125 1.234375 3.921875q0 2.15625 -1.296875 4.203125q-1.296875 2.03125 -4.109375 3.25q-2.796875 1.203125 -7.625 1.203125q-6.8125 0 -9.71875 -1.953125q-2.890625 -1.953125 -3.703125 -5.53125zm29.320312 0l9.46875 -0.890625q0.578125 1.6875 1.625 2.421875q1.0625 0.71875 2.828125 0.71875q1.921875 0 2.96875 -0.828125q0.828125 -0.609375 0.828125 -1.515625q0 -1.03125 -1.078125 -1.59375q-0.78125 -0.40625 -4.109375 -0.984375q-4.96875 -0.875 -6.90625 -1.609375q-1.921875 -0.734375 -3.25 -2.484375q-1.328125 -1.765625 -1.328125 -4.015625q0 -2.46875 1.421875 -4.25q1.4375 -1.78125 3.9375 -2.65625q2.515625 -0.875 6.734375 -0.875q4.453125 0 6.578125 0.6875q2.125 0.671875 3.53125 2.109375q1.421875 1.421875 2.359375 3.859375l-9.046875 0.890625q-0.34375 -1.203125 -1.171875 -1.765625q-1.125 -0.75 -2.71875 -0.75q-1.609375 0 -2.359375 0.578125q-0.734375 0.578125 -0.734375 1.390625q0 0.921875 0.9375 1.390625q0.9375 0.46875 4.078125 0.84375q4.765625 0.53125 7.078125 1.5q2.328125 0.953125 3.546875 2.734375q1.234375 1.78125 1.234375 3.921875q0 2.15625 -1.296875 4.203125q-1.296875 2.03125 -4.109375 3.25q-2.796875 1.203125 -7.625 1.203125q-6.8125 0 -9.71875 -1.953125q-2.890625 -1.953125 -3.703125 -5.53125zm39.695312 -9.9375l-9.109375 -0.96875q0.515625 -2.390625 1.484375 -3.75q0.96875 -1.375 2.796875 -2.390625q1.3125 -0.71875 3.609375 -1.109375q2.296875 -0.40625 4.96875 -0.40625q4.296875 0 6.890625 0.484375q2.609375 0.46875 4.34375 2.0q1.21875 1.046875 1.921875 2.984375q0.703125 1.9375 0.703125 3.6875l0 11.0q0 1.75 0.21875 2.75q0.21875 1.0 0.96875 2.546875l-8.953125 0q-0.53125 -0.96875 -0.703125 -1.46875q-0.15625 -0.5 -0.328125 -1.578125q-1.875 1.796875 -3.71875 2.578125q-2.53125 1.03125 -5.890625 1.03125q-4.453125 0 -6.765625 -2.0625q-2.296875 -2.0625 -2.296875 -5.09375q0 -2.828125 1.65625 -4.65625q1.671875 -1.828125 6.140625 -2.71875q5.375 -1.078125 6.96875 -1.515625q1.59375 -0.4375 3.375 -1.140625q0 -1.75 -0.734375 -2.453125q-0.71875 -0.703125 -2.546875 -0.703125q-2.34375 0 -3.515625 0.75q-0.921875 0.578125 -1.484375 2.203125zm8.28125 5.015625q-1.96875 0.703125 -4.109375 1.234375q-2.90625 0.78125 -3.671875 1.53125q-0.796875 0.765625 -0.796875 1.75q0 1.125 0.78125 1.84375q0.78125 0.71875 2.3125 0.71875q1.59375 0 2.953125 -0.765625q1.375 -0.78125 1.953125 -1.890625q0.578125 -1.125 0.578125 -2.90625l0 -1.515625zm33.132812 -13.078125l8.9375 0l0 23.5l0.015625 1.109375q0 2.34375 -1.0 4.46875q-0.984375 2.125 -2.640625 3.4375q-1.65625 1.3125 -4.203125 1.890625q-2.53125 0.59375 -5.8125 0.59375q-7.5 0 -10.3125 -2.25q-2.796875 -2.25 -2.796875 -6.03125q0 -0.46875 0.046875 -1.265625l9.265625 1.0625q0.34375 1.28125 1.078125 1.78125q1.046875 0.71875 2.640625 0.71875q2.0625 0 3.078125 -1.109375q1.03125 -1.09375 1.03125 -3.84375l0 -3.765625q-1.40625 1.65625 -2.8125 2.40625q-2.203125 1.171875 -4.765625 1.171875q-4.984375 0 -8.0625 -4.359375q-2.171875 -3.09375 -2.171875 -8.171875q0 -5.8125 2.8125 -8.859375q2.8125 -3.046875 7.359375 -3.046875q2.90625 0 4.78125 0.984375q1.890625 0.984375 3.53125 3.25l0 -3.671875zm-8.96875 12.0625q0 2.703125 1.140625 4.0q1.15625 1.296875 3.03125 1.296875q1.78125 0 2.984375 -1.34375q1.203125 -1.34375 1.203125 -4.0625q0 -2.71875 -1.265625 -4.15625q-1.265625 -1.453125 -3.09375 -1.453125q-1.828125 0 -2.921875 1.328125q-1.078125 1.328125 -1.078125 4.390625zm51.296875 2.75l-19.125 0q0.265625 2.296875 1.25 3.421875q1.375 1.609375 3.609375 1.609375q1.40625 0 2.671875 -0.703125q0.765625 -0.4375 1.65625 -1.5625l9.40625 0.859375q-2.15625 3.75 -5.203125 5.390625q-3.046875 1.625 -8.75 1.625q-4.9375 0 -7.78125 -1.390625q-2.828125 -1.40625 -4.703125 -4.4375q-1.859375 -3.03125 -1.859375 -7.140625q0 -5.828125 3.734375 -9.4375q3.75 -3.609375 10.328125 -3.609375q5.34375 0 8.4375 1.625q3.09375 1.609375 4.703125 4.6875q1.625 3.0625 1.625 7.984375l0 1.078125zm-9.703125 -4.578125q-0.28125 -2.765625 -1.484375 -3.953125q-1.203125 -1.203125 -3.171875 -1.203125q-2.28125 0 -3.640625 1.8125q-0.859375 1.125 -1.09375 3.34375l9.390625 0zm12.40625 7.765625l9.46875 -0.890625q0.578125 1.6875 1.625 2.421875q1.0625 0.71875 2.828125 0.71875q1.921875 0 2.96875 -0.828125q0.828125 -0.609375 0.828125 -1.515625q0 -1.03125 -1.078125 -1.59375q-0.78125 -0.40625 -4.109375 -0.984375q-4.96875 -0.875 -6.90625 -1.609375q-1.921875 -0.734375 -3.25 -2.484375q-1.328125 -1.765625 -1.328125 -4.015625q0 -2.46875 1.421875 -4.25q1.4375 -1.78125 3.9375 -2.65625q2.515625 -0.875 6.734375 -0.875q4.453125 0 6.578125 0.6875q2.125 0.671875 3.53125 2.109375q1.421875 1.421875 2.359375 3.859375l-9.046875 0.890625q-0.34375 -1.203125 -1.171875 -1.765625q-1.125 -0.75 -2.71875 -0.75q-1.609375 0 -2.359375 0.578125q-0.734375 0.578125 -0.734375 1.390625q0 0.921875 0.9375 1.390625q0.9375 0.46875 4.078125 0.84375q4.765625 0.53125 7.078125 1.5q2.328125 0.953125 3.546875 2.734375q1.234375 1.78125 1.234375 3.921875q0 2.15625 -1.296875 4.203125q-1.296875 2.03125 -4.109375 3.25q-2.796875 1.203125 -7.625 1.203125q-6.8125 0 -9.71875 -1.953125q-2.890625 -1.953125 -3.703125 -5.53125z" fill-rule="nonzero"/><path fill="#38761d" d="m637.2522 92.19958l211.17535 0l24.226196 24.226204l0 121.12813l-235.40155 0z" fill-rule="evenodd"/><path stroke="#595959" stroke-width="1.0" stroke-linejoin="round" stroke-linecap="butt" d="m637.2522 92.19958l211.17535 0l24.226196 24.226204l0 121.12813l-235.40155 0z" fill-rule="evenodd"/><path fill="#ffffff" d="m719.10736 179.30954q1.328125 0.921875 1.734375 1.15625q0.609375 0.34375 1.640625 0.796875l-1.96875 3.96875q-1.484375 -0.71875 -2.9375 -1.71875q-1.453125 -0.984375 -2.03125 -1.484375q-2.34375 1.015625 -5.875 1.015625q-5.21875 0 -8.234375 -2.71875q-3.5625 -3.21875 -3.5625 -9.046875q0 -5.65625 3.109375 -8.78125q3.125 -3.140625 8.71875 -3.140625q5.703125 0 8.796875 3.0625q3.109375 3.0625 3.109375 8.765625q0 5.078125 -2.5 8.125zm-5.421875 -3.625q0.84375 -1.515625 0.84375 -4.53125q0 -3.46875 -1.296875 -4.953125q-1.28125 -1.484375 -3.546875 -1.484375q-2.109375 0 -3.421875 1.515625q-1.3125 1.515625 -1.3125 4.734375q0 3.75 1.28125 5.265625q1.28125 1.515625 3.515625 1.515625q0.71875 0 1.359375 -0.140625q-0.890625 -0.859375 -2.8125 -1.625l1.109375 -2.546875q0.9375 0.171875 1.453125 0.421875q0.53125 0.25 2.046875 1.3125q0.359375 0.25 0.78125 0.515625zm28.796875 6.96875l-5.9375 0l0 -2.6875q-1.328125 1.65625 -2.6875 2.359375q-1.34375 0.703125 -3.3125 0.703125q-2.625 0 -4.125 -1.5625q-1.484375 -1.578125 -1.484375 -4.84375l0 -10.5625l6.390625 0l0 9.125q0 1.5625 0.578125 2.21875q0.578125 0.65625 1.625 0.65625q1.140625 0 1.859375 -0.875q0.734375 -0.875 0.734375 -3.140625l0 -7.984375l6.359375 0l0 16.59375zm22.28125 -6.71875l-12.75 0q0.171875 1.53125 0.828125 2.28125q0.921875 1.078125 2.40625 1.078125q0.9375 0 1.78125 -0.46875q0.515625 -0.296875 1.109375 -1.046875l6.265625 0.578125q-1.4375 2.5 -3.46875 3.59375q-2.03125 1.078125 -5.828125 1.078125q-3.296875 0 -5.1875 -0.921875q-1.890625 -0.9375 -3.140625 -2.953125q-1.234375 -2.03125 -1.234375 -4.765625q0 -3.890625 2.484375 -6.296875q2.5 -2.40625 6.890625 -2.40625q3.5625 0 5.625 1.078125q2.0625 1.078125 3.140625 3.125q1.078125 2.046875 1.078125 5.328125l0 0.71875zm-6.46875 -3.046875q-0.1875 -1.84375 -1.0 -2.640625q-0.796875 -0.796875 -2.109375 -0.796875q-1.515625 0 -2.421875 1.203125q-0.578125 0.75 -0.734375 2.234375l6.265625 0zm9.453125 -6.828125l5.953125 0l0 2.71875q0.859375 -1.765625 1.765625 -2.421875q0.921875 -0.671875 2.265625 -0.671875q1.40625 0 3.078125 0.875l-1.96875 4.53125q-1.125 -0.46875 -1.78125 -0.46875q-1.25 0 -1.9375 1.03125q-0.984375 1.453125 -0.984375 5.4375l0 5.5625l-6.390625 0l0 -16.59375zm14.15625 0l6.71875 0l3.421875 11.046875l3.171875 -11.046875l6.265625 0l-6.578125 17.734375q-1.125 3.03125 -2.296875 4.09375q-1.65625 1.5 -5.046875 1.5q-1.375 0 -4.25 -0.375l-0.5 -4.4375q1.375 0.4375 3.0625 0.4375q1.125 0 1.8125 -0.515625q0.703125 -0.515625 1.1875 -1.84375l-6.96875 -16.59375z" fill-rule="nonzero"/><path fill="#1155cc" d="m602.5877 92.200195l-211.17538 0l-24.226227 24.226204l0 121.12812l235.40161 0z" fill-rule="evenodd"/><path stroke="#595959" stroke-width="1.0" stroke-linejoin="round" stroke-linecap="butt" d="m602.5877 92.200195l-211.17538 0l-24.226227 24.226204l0 121.12812l235.40161 0z" fill-rule="evenodd"/><path fill="#ffffff" d="m421.4044 173.29454l6.203125 1.875q-0.625 2.609375 -1.96875 4.359375q-1.34375 1.75 -3.34375 2.640625q-1.984375 0.890625 -5.0625 0.890625q-3.734375 0 -6.109375 -1.078125q-2.359375 -1.09375 -4.078125 -3.828125q-1.71875 -2.734375 -1.71875 -7.0q0 -5.6875 3.015625 -8.734375q3.03125 -3.0625 8.5625 -3.0625q4.328125 0 6.796875 1.75q2.484375 1.75 3.6875 5.375l-6.25 1.390625q-0.328125 -1.046875 -0.6875 -1.53125q-0.59375 -0.8125 -1.453125 -1.25q-0.859375 -0.4375 -1.921875 -0.4375q-2.40625 0 -3.6875 1.9375q-0.96875 1.4375 -0.96875 4.515625q0 3.8125 1.15625 5.234375q1.15625 1.40625 3.25 1.40625q2.03125 0 3.0625 -1.140625q1.046875 -1.140625 1.515625 -3.3125zm8.4375 1.109375q0 -3.796875 2.5625 -6.25q2.5625 -2.46875 6.921875 -2.46875q4.984375 0 7.53125 2.890625q2.046875 2.328125 2.046875 5.734375q0 3.828125 -2.546875 6.28125q-2.53125 2.4375 -7.015625 2.4375q-4.0 0 -6.46875 -2.03125q-3.03125 -2.515625 -3.03125 -6.59375zm6.375 -0.015625q0 2.21875 0.890625 3.28125q0.90625 1.0625 2.265625 1.0625q1.375 0 2.25 -1.046875q0.890625 -1.046875 0.890625 -3.359375q0 -2.15625 -0.890625 -3.203125q-0.890625 -1.0625 -2.203125 -1.0625q-1.390625 0 -2.296875 1.078125q-0.90625 1.0625 -0.90625 3.25zm15.796875 -8.328125l5.9375 0l0 2.421875q1.28125 -1.515625 2.578125 -2.15625q1.3125 -0.640625 3.15625 -0.640625q1.984375 0 3.140625 0.703125q1.15625 0.703125 1.890625 2.09375q1.5 -1.625 2.734375 -2.203125q1.234375 -0.59375 3.046875 -0.59375q2.671875 0 4.171875 1.59375q1.5 1.578125 1.5 4.953125l0 10.421875l-6.375 0l0 -9.453125q0 -1.125 -0.4375 -1.671875q-0.640625 -0.859375 -1.59375 -0.859375q-1.125 0 -1.8125 0.8125q-0.6875 0.8125 -0.6875 2.609375l0 8.5625l-6.375 0l0 -9.140625q0 -1.09375 -0.125 -1.484375q-0.203125 -0.625 -0.703125 -1.0q-0.5 -0.390625 -1.171875 -0.390625q-1.09375 0 -1.796875 0.828125q-0.703125 0.828125 -0.703125 2.71875l0 8.46875l-6.375 0l0 -16.59375zm32.0 0l5.9375 0l0 2.421875q1.28125 -1.515625 2.578125 -2.15625q1.3125 -0.640625 3.15625 -0.640625q1.984375 0 3.140625 0.703125q1.15625 0.703125 1.890625 2.09375q1.5 -1.625 2.734375 -2.203125q1.234375 -0.59375 3.046875 -0.59375q2.671875 0 4.171875 1.59375q1.4999695 1.578125 1.4999695 4.953125l0 10.421875l-6.3749695 0l0 -9.453125q0 -1.125 -0.4375 -1.671875q-0.640625 -0.859375 -1.59375 -0.859375q-1.125 0 -1.8125 0.8125q-0.6875 0.8125 -0.6875 2.609375l0 8.5625l-6.375 0l0 -9.140625q0 -1.09375 -0.125 -1.484375q-0.203125 -0.625 -0.703125 -1.0q-0.5 -0.390625 -1.171875 -0.390625q-1.09375 0 -1.796875 0.828125q-0.703125 0.828125 -0.703125 2.71875l0 8.46875l-6.375 0l0 -16.59375zm37.74997 5.375l-6.078125 -0.640625q0.34375 -1.59375 0.984375 -2.5q0.65625 -0.921875 1.875 -1.59375q0.875 -0.484375 2.40625 -0.75q1.53125 -0.265625 3.3125 -0.265625q2.859375 0 4.59375 0.328125q1.734375 0.3125 2.890625 1.328125q0.8125 0.703125 1.28125 2.0q0.46875 1.28125 0.46875 2.453125l0 7.328125q0 1.171875 0.140625 1.84375q0.15625 0.65625 0.65625 1.6875l-5.96875 0q-0.359375 -0.640625 -0.46875 -0.96875q-0.109375 -0.34375 -0.21875 -1.0625q-1.25 1.203125 -2.484375 1.71875q-1.6875 0.6875 -3.921875 0.6875q-2.96875 0 -4.515625 -1.375q-1.53125 -1.375 -1.53125 -3.390625q0 -1.890625 1.109375 -3.109375q1.109375 -1.21875 4.09375 -1.8125q3.578125 -0.71875 4.640625 -1.0q1.0625 -0.296875 2.25 -0.765625q0 -1.171875 -0.484375 -1.640625q-0.484375 -0.46875 -1.703125 -0.46875q-1.5625 0 -2.34375 0.5q-0.609375 0.390625 -0.984375 1.46875zm5.515625 3.34375q-1.3125 0.46875 -2.734375 0.828125q-1.9375 0.515625 -2.453125 1.015625q-0.53125 0.515625 -0.53125 1.171875q0 0.75 0.515625 1.234375q0.53125 0.46875 1.546875 0.46875q1.0625 0 1.96875 -0.515625q0.921875 -0.515625 1.296875 -1.25q0.390625 -0.75 0.390625 -1.9375l0 -1.015625zm10.03125 -8.71875l5.921875 0l0 2.703125q1.328125 -1.65625 2.6875 -2.359375q1.359375 -0.71875 3.3125 -0.71875q2.640625 0 4.125 1.578125q1.5 1.5625 1.5 4.84375l0 10.546875l-6.390625 0l0 -9.125q0 -1.5625 -0.578125 -2.203125q-0.578125 -0.65625 -1.625 -0.65625q-1.15625 0 -1.875 0.875q-0.71875 0.875 -0.71875 3.140625l0 7.96875l-6.359375 0l0 -16.59375zm38.8125 -6.3125l0 22.90625l-5.953125 0l0 -2.453125q-1.25 1.5625 -2.28125 2.109375q-1.375 0.71875 -3.0625 0.71875q-3.390625 0 -5.1875 -2.578125q-1.78125 -2.578125 -1.78125 -6.265625q0 -4.125 1.96875 -6.3125q1.984375 -2.1875 5.03125 -2.1875q1.484375 0 2.6875 0.5q1.21875 0.5 2.15625 1.5l0 -7.9375l6.421875 0zm-6.375 14.5625q0 -1.953125 -0.828125 -2.90625q-0.828125 -0.96875 -2.09375 -0.96875q-1.109375 0 -1.859375 0.921875q-0.75 0.921875 -0.75 3.09375q0 2.03125 0.765625 2.984375q0.78125 0.9375 1.921875 0.9375q1.21875 0 2.03125 -0.953125q0.8125 -0.953125 0.8125 -3.109375z" fill-rule="nonzero"/><path fill="#cc0000" d="m388.5175 333.54593l462.88626 0l21.328552 21.328522l0 106.639984l0 0l-505.54333 0l0 0l0 -106.639984z" fill-rule="evenodd"/><path stroke="#595959" stroke-width="1.0" stroke-linejoin="round" stroke-linecap="butt" d="m388.5175 333.54593l462.88626 0l21.328552 21.328522l0 106.639984l0 0l-505.54333 0l0 0l0 -106.639984z" fill-rule="evenodd"/><path fill="#ffffff" d="m516.8161 406.2623l0 -28.640625l14.75 0q4.09375 0 6.265625 0.703125q2.171875 0.703125 3.5 2.609375q1.328125 1.90625 1.328125 4.640625q0 2.390625 -1.015625 4.125q-1.015625 1.71875 -2.796875 2.796875q-1.125 0.671875 -3.109375 1.125q1.59375 0.53125 2.3125 1.0625q0.484375 0.34375 1.40625 1.5q0.9375 1.15625 1.25 1.78125l4.28125 8.296875l-10.0 0l-4.734375 -8.75q-0.890625 -1.703125 -1.59375 -2.203125q-0.96875 -0.671875 -2.171875 -0.671875l-0.78125 0l0 11.625l-8.890625 0zm8.890625 -17.03125l3.734375 0q0.59375 0 2.34375 -0.390625q0.875 -0.171875 1.421875 -0.890625q0.5625 -0.734375 0.5625 -1.671875q0 -1.390625 -0.875 -2.125q-0.875 -0.75 -3.296875 -0.75l-3.890625 0l0 5.828125zm43.617188 8.625l-15.9375 0q0.203125 1.921875 1.03125 2.859375q1.15625 1.34375 3.0 1.34375q1.171875 0 2.234375 -0.578125q0.640625 -0.375 1.390625 -1.3125l7.828125 0.71875q-1.796875 3.125 -4.34375 4.484375q-2.53125 1.359375 -7.28125 1.359375q-4.125 0 -6.484375 -1.15625q-2.359375 -1.171875 -3.921875 -3.703125q-1.546875 -2.53125 -1.546875 -5.9375q0 -4.875 3.109375 -7.875q3.125 -3.015625 8.609375 -3.015625q4.453125 0 7.03125 1.359375q2.578125 1.34375 3.921875 3.90625q1.359375 2.546875 1.359375 6.65625l0 0.890625zm-8.09375 -3.796875q-0.234375 -2.3125 -1.25 -3.296875q-1.0 -1.0 -2.640625 -1.0q-1.890625 0 -3.015625 1.5q-0.734375 0.9375 -0.921875 2.796875l7.828125 0zm10.3359375 6.453125l7.890625 -0.734375q0.484375 1.40625 1.359375 2.015625q0.890625 0.59375 2.34375 0.59375q1.609375 0 2.484375 -0.671875q0.6875 -0.515625 0.6875 -1.28125q0 -0.859375 -0.90625 -1.328125q-0.640625 -0.328125 -3.40625 -0.8125q-4.140625 -0.71875 -5.765625 -1.328125q-1.609375 -0.625 -2.71875 -2.09375q-1.09375 -1.46875 -1.09375 -3.34375q0 -2.046875 1.1875 -3.53125q1.203125 -1.484375 3.28125 -2.21875q2.09375 -0.734375 5.609375 -0.734375q3.71875 0 5.484375 0.578125q1.765625 0.5625 2.9375 1.75q1.1875 1.1875 1.96875 3.21875l-7.53125 0.75q-0.296875 -1.0 -0.984375 -1.46875q-0.9375 -0.625 -2.265625 -0.625q-1.34375 0 -1.96875 0.484375q-0.609375 0.46875 -0.609375 1.15625q0 0.765625 0.78125 1.15625q0.78125 0.390625 3.40625 0.703125q3.953125 0.453125 5.890625 1.25q1.9375 0.796875 2.953125 2.28125q1.03125 1.484375 1.03125 3.265625q0 1.796875 -1.09375 3.5q-1.078125 1.6875 -3.40625 2.703125q-2.328125 1.0 -6.359375 1.0q-5.6875 0 -8.09375 -1.609375q-2.40625 -1.625 -3.09375 -4.625zm25.871094 13.640625l0 -28.640625l7.453125 0l0 3.078125q1.53125 -1.9375 2.828125 -2.625q1.734375 -0.921875 3.84375 -0.921875q4.15625 0 6.4375 3.1875q2.28125 3.1875 2.28125 7.875q0 5.171875 -2.484375 7.90625q-2.484375 2.71875 -6.265625 2.71875q-1.84375 0 -3.359375 -0.625q-1.515625 -0.625 -2.703125 -1.859375l0 9.90625l-8.03125 0zm7.96875 -18.203125q0 2.453125 1.03125 3.65625q1.046875 1.1875 2.625 1.1875q1.390625 0 2.328125 -1.140625q0.9375 -1.140625 0.9375 -3.875q0 -2.53125 -0.984375 -3.703125q-0.96875 -1.1875 -2.375 -1.1875q-1.53125 0 -2.546875 1.203125q-1.015625 1.1875 -1.015625 3.859375zm17.695312 0q0 -4.75 3.203125 -7.828125q3.203125 -3.078125 8.65625 -3.078125q6.234375 0 9.421875 3.625q2.546875 2.90625 2.546875 7.15625q0 4.796875 -3.171875 7.859375q-3.171875 3.046875 -8.78125 3.046875q-5.0 0 -8.078125 -2.546875q-3.796875 -3.140625 -3.796875 -8.234375zm7.96875 -0.015625q0 2.765625 1.125 4.09375q1.125 1.328125 2.828125 1.328125q1.71875 0 2.8125 -1.296875q1.109375 -1.3125 1.109375 -4.203125q0 -2.703125 -1.109375 -4.015625q-1.109375 -1.328125 -2.75 -1.328125q-1.75 0 -2.890625 1.34375q-1.125 1.34375 -1.125 4.078125zm19.695312 -10.421875l7.40625 0l0 3.390625q1.65625 -2.078125 3.34375 -2.96875q1.703125 -0.890625 4.15625 -0.890625q3.296875 0 5.15625 1.96875q1.875 1.96875 1.875 6.0625l0 13.1875l-8.0 0l0 -11.40625q0 -1.953125 -0.71875 -2.765625q-0.71875 -0.8125 -2.03125 -0.8125q-1.4375 0 -2.34375 1.09375q-0.890625 1.09375 -0.890625 3.921875l0 9.96875l-7.953125 0l0 -20.75zm25.273438 15.0l7.890625 -0.734375q0.484375 1.40625 1.359375 2.015625q0.890625 0.59375 2.34375 0.59375q1.609375 0 2.484375 -0.671875q0.6875 -0.515625 0.6875 -1.28125q0 -0.859375 -0.90625 -1.328125q-0.640625 -0.328125 -3.40625 -0.8125q-4.140625 -0.71875 -5.765625 -1.328125q-1.609375 -0.625 -2.71875 -2.09375q-1.09375 -1.46875 -1.09375 -3.34375q0 -2.046875 1.1875 -3.53125q1.203125 -1.484375 3.28125 -2.21875q2.09375 -0.734375 5.609375 -0.734375q3.71875 0 5.484375 0.578125q1.765625 0.5625 2.9375 1.75q1.1875 1.1875 1.96875 3.21875l-7.53125 0.75q-0.296875 -1.0 -0.984375 -1.46875q-0.9375 -0.625 -2.265625 -0.625q-1.34375 0 -1.96875 0.484375q-0.609375 0.46875 -0.609375 1.15625q0 0.765625 0.78125 1.15625q0.78125 0.390625 3.40625 0.703125q3.953125 0.453125 5.890625 1.25q1.9375 0.796875 2.953125 2.28125q1.03125 1.484375 1.03125 3.265625q0 1.796875 -1.09375 3.5q-1.078125 1.6875 -3.40625 2.703125q-2.328125 1.0 -6.359375 1.0q-5.6875 0 -8.09375 -1.609375q-2.40625 -1.625 -3.09375 -4.625zm48.871094 -2.65625l-15.9375 0q0.203125 1.921875 1.03125 2.859375q1.15625 1.34375 3.0 1.34375q1.171875 0 2.234375 -0.578125q0.640625 -0.375 1.390625 -1.3125l7.828125 0.71875q-1.796875 3.125 -4.34375 4.484375q-2.53125 1.359375 -7.28125 1.359375q-4.125 0 -6.484375 -1.15625q-2.359375 -1.171875 -3.921875 -3.703125q-1.546875 -2.53125 -1.546875 -5.9375q0 -4.875 3.109375 -7.875q3.125 -3.015625 8.609375 -3.015625q4.453125 0 7.03125 1.359375q2.578125 1.34375 3.921875 3.90625q1.359375 2.546875 1.359375 6.65625l0 0.890625zm-8.09375 -3.796875q-0.234375 -2.3125 -1.25 -3.296875q-1.0 -1.0 -2.640625 -1.0q-1.890625 0 -3.015625 1.5q-0.734375 0.9375 -0.921875 2.796875l7.828125 0z" fill-rule="nonzero"/><path fill="#ffffff" d="m477.8237 437.7042l-1.75 0q-1.390625 -2.09375 -2.125 -4.359375q-0.734375 -2.28125 -0.734375 -4.40625q0 -2.625 0.90625 -4.96875q0.78125 -2.046875 1.984375 -3.765625l1.75 0q-1.25 2.75 -1.71875 4.6875q-0.46875 1.9375 -0.46875 4.109375q0 1.5 0.28125 3.0625q0.28125 1.5625 0.765625 2.96875q0.3125 0.9375 1.109375 2.671875zm1.978302 -14.90625l0 -2.375l2.5625 0l0 2.375l-2.5625 0zm0 10.984375l0 -9.671875l2.5625 0l0 9.671875l-2.5625 0zm13.980194 0l-2.5625 0l0 -4.9375q0 -1.5625 -0.171875 -2.015625q-0.15625 -0.46875 -0.53125 -0.71875q-0.359375 -0.265625 -0.875 -0.265625q-0.671875 0 -1.203125 0.375q-0.53125 0.359375 -0.734375 0.96875q-0.1875 0.59375 -0.1875 2.21875l0 4.375l-2.546875 0l0 -9.671875l2.375 0l0 1.421875q1.265625 -1.640625 3.1875 -1.640625q0.84375 0 1.546875 0.3125q0.703125 0.296875 1.0625 0.78125q0.359375 0.46875 0.5 1.078125q0.140625 0.59375 0.140625 1.703125l0 6.015625zm10.235535 0l-2.5625 0l0 -9.671875l2.375 0l0 1.375q0.609375 -0.984375 1.09375 -1.28125q0.484375 -0.3125 1.109375 -0.3125q0.875 0 1.6875 0.484375l-0.796875 2.234375q-0.640625 -0.421875 -1.203125 -0.421875q-0.53125 0 -0.90625 0.296875q-0.375 0.296875 -0.59375 1.078125q-0.203125 0.765625 -0.203125 3.234375l0 2.984375zm10.400909 -3.078125l2.546875 0.421875q-0.484375 1.40625 -1.546875 2.140625q-1.0625 0.734375 -2.65625 0.734375q-2.5156555 0 -3.7344055 -1.65625q-0.953125 -1.3125 -0.953125 -3.328125q0 -2.40625 1.25 -3.765625q1.265625 -1.359375 3.1875305 -1.359375q2.15625 0 3.40625 1.421875q1.25 1.421875 1.1875 4.375l-6.4062805 0q0.03125 1.140625 0.609375 1.78125q0.59375 0.625 1.4844055 0.625q0.59375 0 1.0 -0.328125q0.421875 -0.328125 0.625 -1.0625zm0.15625 -2.59375q-0.03125 -1.109375 -0.578125 -1.6875q-0.546875 -0.578125 -1.328125 -0.578125q-0.8437805 0 -1.3906555 0.609375q-0.546875 0.609375 -0.53125 1.65625l3.8281555 0zm3.7194214 2.90625l2.5625 -0.390625q0.171875 0.75 0.671875 1.140625q0.5 0.390625 1.40625 0.390625q0.984375 0 1.484375 -0.375q0.34375 -0.25 0.34375 -0.671875q0 -0.296875 -0.1875 -0.484375q-0.1875 -0.1875 -0.859375 -0.34375q-3.09375 -0.6875 -3.921875 -1.25q-1.140625 -0.78125 -1.140625 -2.171875q0 -1.265625 0.984375 -2.109375q1.0 -0.859375 3.078125 -0.859375q1.984375 0 2.953125 0.65625q0.96875 0.640625 1.328125 1.90625l-2.40625 0.4375q-0.15625 -0.5625 -0.59375 -0.859375q-0.421875 -0.296875 -1.234375 -0.296875q-1.0 0 -1.4375 0.28125q-0.296875 0.203125 -0.296875 0.515625q0 0.265625 0.25 0.46875q0.34375 0.25 2.390625 0.71875q2.046875 0.453125 2.859375 1.140625q0.796875 0.671875 0.796875 1.890625q0 1.34375 -1.109375 2.296875q-1.109375 0.953125 -3.28125 0.953125q-1.984375 0 -3.140625 -0.796875q-1.140625 -0.8125 -1.5 -2.1875zm11.203857 -6.90625l2.390625 0l0 1.421875q0.46875 -0.734375 1.25 -1.1875q0.796875 -0.453125 1.765625 -0.453125q1.6875 0 2.859375 1.328125q1.171875 1.3125 1.171875 3.671875q0 2.421875 -1.1875 3.765625q-1.1875 1.34375 -2.859375 1.34375q-0.8125 0 -1.46875 -0.3125q-0.640625 -0.328125 -1.359375 -1.09375l0 4.875l-2.5625 0l0 -13.359375zm2.53125 4.671875q0 1.625 0.640625 2.40625q0.65625 0.78125 1.578125 0.78125q0.90625 0 1.484375 -0.71875q0.59375 -0.71875 0.59375 -2.34375q0 -1.515625 -0.609375 -2.25q-0.609375 -0.75 -1.515625 -0.75q-0.9375 0 -1.5625 0.734375q-0.609375 0.71875 -0.609375 2.140625zm8.349121 0.03125q0 -1.28125 0.625 -2.46875q0.625 -1.203125 1.78125 -1.828125q1.15625 -0.625 2.578125 -0.625q2.1875 0 3.59375 1.421875q1.40625 1.421875 1.40625 3.609375q0 2.1875 -1.421875 3.640625q-1.421875 1.4375 -3.5625 1.4375q-1.328125 0 -2.546875 -0.59375q-1.203125 -0.609375 -1.828125 -1.765625q-0.625 -1.171875 -0.625 -2.828125zm2.625 0.125q0 1.453125 0.671875 2.21875q0.6875 0.75 1.6875 0.75q1.0 0 1.671875 -0.75q0.6875 -0.765625 0.6875 -2.234375q0 -1.421875 -0.6875 -2.1875q-0.671875 -0.765625 -1.671875 -0.765625q-1.0 0 -1.6875 0.765625q-0.671875 0.765625 -0.671875 2.203125zm18.161621 4.84375l-2.5625 0l0 -4.9375q0 -1.5625 -0.171875 -2.015625q-0.15625 -0.46875 -0.53125 -0.71875q-0.359375 -0.265625 -0.875 -0.265625q-0.671875 0 -1.203125 0.375q-0.53125 0.359375 -0.734375 0.96875q-0.1875 0.59375 -0.1875 2.21875l0 4.375l-2.546875 0l0 -9.671875l2.375 0l0 1.421875q1.265625 -1.640625 3.1875 -1.640625q0.84375 0 1.546875 0.3125q0.703125 0.296875 1.0625 0.78125q0.359375 0.46875 0.5 1.078125q0.140625 0.59375 0.140625 1.703125l0 6.015625zm1.69281 -2.765625l2.5625 -0.390625q0.171875 0.75 0.671875 1.140625q0.5 0.390625 1.40625 0.390625q0.984375 0 1.484375 -0.375q0.34375 -0.25 0.34375 -0.671875q0 -0.296875 -0.1875 -0.484375q-0.1875 -0.1875 -0.859375 -0.34375q-3.09375 -0.6875 -3.921875 -1.25q-1.140625 -0.78125 -1.140625 -2.171875q0 -1.265625 0.984375 -2.109375q1.0 -0.859375 3.078125 -0.859375q1.984375 0 2.953125 0.65625q0.96875 0.640625 1.328125 1.90625l-2.40625 0.4375q-0.15625 -0.5625 -0.59375 -0.859375q-0.421875 -0.296875 -1.234375 -0.296875q-1.0 0 -1.4375 0.28125q-0.296875 0.203125 -0.296875 0.515625q0 0.265625 0.25 0.46875q0.34375 0.25 2.390625 0.71875q2.046875 0.453125 2.859375 1.140625q0.796875 0.671875 0.796875 1.890625q0 1.34375 -1.109375 2.296875q-1.109375 0.953125 -3.28125 0.953125q-1.984375 0 -3.140625 -0.796875q-1.140625 -0.8125 -1.5 -2.1875zm16.875732 -0.3125l2.546875 0.421875q-0.484375 1.40625 -1.546875 2.140625q-1.0625 0.734375 -2.65625 0.734375q-2.515625 0 -3.734375 -1.65625q-0.953125 -1.3125 -0.953125 -3.328125q0 -2.40625 1.25 -3.765625q1.265625 -1.359375 3.1875 -1.359375q2.15625 0 3.40625 1.421875q1.25 1.421875 1.1875 4.375l-6.40625 0q0.03125 1.140625 0.609375 1.78125q0.59375 0.625 1.484375 0.625q0.59375 0 1.0 -0.328125q0.421875 -0.328125 0.625 -1.0625zm0.15625 -2.59375q-0.03125 -1.109375 -0.578125 -1.6875q-0.546875 -0.578125 -1.328125 -0.578125q-0.84375 0 -1.390625 0.609375q-0.546875 0.609375 -0.53125 1.65625l3.828125 0zm14.246521 -4.0l0 2.03125l-1.75 0l0 3.90625q0 1.1875 0.046875 1.390625q0.046875 0.1875 0.21875 0.3125q0.1875 0.125 0.4375 0.125q0.359375 0 1.03125 -0.25l0.21875 2.0q-0.890625 0.375 -2.015625 0.375q-0.703125 0 -1.265625 -0.234375q-0.546875 -0.234375 -0.8125 -0.59375q-0.25 -0.375 -0.34375 -1.0q-0.09375 -0.453125 -0.09375 -1.8125l0 -4.21875l-1.171875 0l0 -2.03125l1.171875 0l0 -1.921875l2.578125 -1.5l0 3.421875l1.75 0zm1.1814575 4.703125q0 -1.28125 0.625 -2.46875q0.625 -1.203125 1.78125 -1.828125q1.15625 -0.625 2.578125 -0.625q2.1875 0 3.59375 1.421875q1.40625 1.421875 1.40625 3.609375q0 2.1875 -1.421875 3.640625q-1.421875 1.4375 -3.5625 1.4375q-1.328125 0 -2.546875 -0.59375q-1.203125 -0.609375 -1.828125 -1.765625q-0.625 -1.171875 -0.625 -2.828125zm2.625 0.125q0 1.453125 0.671875 2.21875q0.6875 0.75 1.6875 0.75q1.0 0 1.671875 -0.75q0.6875 -0.765625 0.6875 -2.234375q0 -1.421875 -0.6875 -2.1875q-0.671875 -0.765625 -1.671875 -0.765625q-1.0 0 -1.6875 0.765625q-0.671875 0.765625 -0.671875 2.203125zm23.110535 -0.0625l2.609375 0.828125q-0.59375 2.1875 -2.0 3.25q-1.390625 1.0625 -3.546875 1.0625q-2.65625 0 -4.375 -1.8125q-1.703125 -1.828125 -1.703125 -4.984375q0 -3.328125 1.71875 -5.171875q1.71875 -1.84375 4.515625 -1.84375q2.453125 0 3.984375 1.4375q0.921875 0.859375 1.375 2.46875l-2.671875 0.640625q-0.234375 -1.046875 -0.984375 -1.640625q-0.75 -0.609375 -1.828125 -0.609375q-1.484375 0 -2.421875 1.078125q-0.921875 1.0625 -0.921875 3.4375q0 2.53125 0.90625 3.609375q0.921875 1.078125 2.375 1.078125q1.078125 0 1.84375 -0.671875q0.78125 -0.6875 1.125 -2.15625zm4.3166504 -0.0625q0 -1.28125 0.625 -2.46875q0.625 -1.203125 1.78125 -1.828125q1.15625 -0.625 2.578125 -0.625q2.1875 0 3.59375 1.421875q1.40625 1.421875 1.40625 3.609375q0 2.1875 -1.421875 3.640625q-1.421875 1.4375 -3.5625 1.4375q-1.328125 0 -2.546875 -0.59375q-1.203125 -0.609375 -1.828125 -1.765625q-0.625 -1.171875 -0.625 -2.828125zm2.625 0.125q0 1.453125 0.671875 2.21875q0.6875 0.75 1.6875 0.75q1.0 0 1.671875 -0.75q0.6875 -0.765625 0.6875 -2.234375q0 -1.421875 -0.6875 -2.1875q-0.671875 -0.765625 -1.671875 -0.765625q-1.0 0 -1.6875 0.765625q-0.671875 0.765625 -0.671875 2.203125zm9.161621 -4.828125l2.359375 0l0 1.3125q1.265625 -1.53125 3.015625 -1.53125q0.9375 0 1.609375 0.390625q0.6875 0.375 1.125 1.140625q0.640625 -0.765625 1.375 -1.140625q0.75 -0.390625 1.578125 -0.390625q1.0625 0 1.796875 0.4375q0.75 0.421875 1.109375 1.265625q0.265625 0.625 0.265625 2.0l0 6.1875l-2.5625 0l0 -5.53125q0 -1.4375 -0.265625 -1.859375q-0.34375 -0.546875 -1.09375 -0.546875q-0.53125 0 -1.015625 0.328125q-0.46875 0.328125 -0.671875 0.96875q-0.203125 0.625 -0.203125 2.0l0 4.640625l-2.5625 0l0 -5.296875q0 -1.421875 -0.140625 -1.828125q-0.140625 -0.40625 -0.421875 -0.609375q-0.28125 -0.203125 -0.78125 -0.203125q-0.59375 0 -1.0625 0.328125q-0.46875 0.3125 -0.6875 0.921875q-0.203125 0.59375 -0.203125 1.984375l0 4.703125l-2.5625 0l0 -9.671875zm16.588379 0l2.359375 0l0 1.3125q1.265625 -1.53125 3.015625 -1.53125q0.9375 0 1.609375 0.390625q0.6875 0.375 1.125 1.140625q0.640625 -0.765625 1.375 -1.140625q0.75 -0.390625 1.578125 -0.390625q1.0625 0 1.796875 0.4375q0.75 0.421875 1.109375 1.265625q0.265625 0.625 0.265625 2.0l0 6.1875l-2.5625 0l0 -5.53125q0 -1.4375 -0.265625 -1.859375q-0.34375 -0.546875 -1.09375 -0.546875q-0.53125 0 -1.015625 0.328125q-0.46875 0.328125 -0.671875 0.96875q-0.203125 0.625 -0.203125 2.0l0 4.640625l-2.5625 0l0 -5.296875q0 -1.421875 -0.140625 -1.828125q-0.140625 -0.40625 -0.421875 -0.609375q-0.28125 -0.203125 -0.78125 -0.203125q-0.59375 0 -1.0625 0.328125q-0.46875 0.3125 -0.6875 0.921875q-0.203125 0.59375 -0.203125 1.984375l0 4.703125l-2.5625 0l0 -9.671875zm18.697754 2.953125l-2.328125 -0.421875q0.40625 -1.40625 1.359375 -2.078125q0.953125 -0.671875 2.84375 -0.671875q1.703125 0 2.546875 0.40625q0.84375 0.40625 1.171875 1.03125q0.34375 0.625 0.34375 2.28125l-0.015625 3.0q0 1.265625 0.109375 1.875q0.125 0.609375 0.46875 1.296875l-2.53125 0q-0.109375 -0.25 -0.25 -0.75q-0.0625 -0.234375 -0.09375 -0.3125q-0.65625 0.640625 -1.40625 0.96875q-0.734375 0.3125 -1.59375 0.3125q-1.484375 0 -2.34375 -0.8125q-0.859375 -0.8125 -0.859375 -2.046875q0 -0.828125 0.390625 -1.46875q0.390625 -0.640625 1.09375 -0.96875q0.703125 -0.34375 2.03125 -0.609375q1.796875 -0.328125 2.484375 -0.625l0 -0.25q0 -0.75 -0.359375 -1.0625q-0.359375 -0.3125 -1.375 -0.3125q-0.6875 0 -1.078125 0.28125q-0.375 0.265625 -0.609375 0.9375zm3.421875 2.078125q-0.484375 0.15625 -1.5625 0.390625q-1.0625 0.21875 -1.390625 0.4375q-0.5 0.359375 -0.5 0.90625q0 0.53125 0.40625 0.9375q0.40625 0.390625 1.015625 0.390625q0.703125 0 1.328125 -0.46875q0.46875 -0.34375 0.609375 -0.84375q0.09375 -0.328125 0.09375 -1.25l0 -0.5zm13.844482 4.640625l-2.5625 0l0 -4.9375q0 -1.5625 -0.171875 -2.015625q-0.15625 -0.46875 -0.53125 -0.71875q-0.359375 -0.265625 -0.875 -0.265625q-0.671875 0 -1.203125 0.375q-0.53125 0.359375 -0.734375 0.96875q-0.1875 0.59375 -0.1875 2.21875l0 4.375l-2.546875 0l0 -9.671875l2.375 0l0 1.421875q1.265625 -1.640625 3.1875 -1.640625q0.84375 0 1.546875 0.3125q0.703125 0.296875 1.0625 0.78125q0.359375 0.46875 0.5 1.078125q0.140625 0.59375 0.140625 1.703125l0 6.015625zm11.474121 0l-2.390625 0l0 -1.421875q-0.59375 0.828125 -1.40625 1.234375q-0.796875 0.40625 -1.609375 0.40625q-1.671875 0 -2.859375 -1.34375q-1.1875 -1.34375 -1.1875 -3.75q0 -2.453125 1.15625 -3.734375q1.15625 -1.28125 2.921875 -1.28125q1.625 0 2.8125 1.34375l0 -4.8125l2.5625 0l0 13.359375zm-6.84375 -5.046875q0 1.546875 0.4375 2.234375q0.609375 1.015625 1.71875 1.015625q0.890625 0 1.5 -0.75q0.625 -0.765625 0.625 -2.25q0 -1.671875 -0.609375 -2.40625q-0.59375 -0.734375 -1.53125 -0.734375q-0.90625 0 -1.53125 0.734375q-0.609375 0.71875 -0.609375 2.15625zm7.989746 5.28125l3.3125 -13.8125l1.921875 0l-3.34375 13.8125l-1.890625 0zm17.323914 -1.921875q0.984375 0.703125 2.15625 1.125l-1.0 1.90625q-0.609375 -0.1875 -1.1875 -0.5q-0.125 -0.0625 -1.796875 -1.1875q-1.3125 0.578125 -2.90625 0.578125q-3.078125 0 -4.828125 -1.8125q-1.734375 -1.8125 -1.734375 -5.09375q0 -3.28125 1.75 -5.09375q1.75 -1.8125 4.75 -1.8125q2.96875 0 4.703125 1.8125q1.734375 1.8125 1.734375 5.09375q0 1.71875 -0.484375 3.03125q-0.359375 1.015625 -1.15625 1.953125zm-2.171875 -1.53125q0.515625 -0.609375 0.78125 -1.46875q0.265625 -0.875 0.265625 -1.984375q0 -2.3125 -1.03125 -3.453125q-1.015625 -1.15625 -2.671875 -1.15625q-1.640625 0 -2.671875 1.15625q-1.015625 1.140625 -1.015625 3.453125q0 2.328125 1.015625 3.5q1.03125 1.15625 2.59375 1.15625q0.578125 0 1.109375 -0.1875q-0.828125 -0.53125 -1.671875 -0.84375l0.75 -1.53125q1.34375 0.453125 2.546875 1.359375zm12.277039 3.21875l0 -1.453125q-0.53125 0.78125 -1.390625 1.234375q-0.859375 0.4375 -1.8125 0.4375q-0.96875 0 -1.75 -0.421875q-0.765625 -0.4375 -1.125 -1.203125q-0.34375 -0.78125 -0.34375 -2.140625l0 -6.125l2.5625 0l0 4.4375q0 2.046875 0.140625 2.515625q0.140625 0.453125 0.515625 0.71875q0.375 0.265625 0.953125 0.265625q0.65625 0 1.171875 -0.359375q0.515625 -0.359375 0.703125 -0.890625q0.203125 -0.53125 0.203125 -2.609375l0 -4.078125l2.546875 0l0 9.671875l-2.375 0zm10.630371 -3.078125l2.546875 0.421875q-0.484375 1.40625 -1.546875 2.140625q-1.0625 0.734375 -2.65625 0.734375q-2.515625 0 -3.734375 -1.65625q-0.953125 -1.3125 -0.953125 -3.328125q0 -2.40625 1.25 -3.765625q1.265625 -1.359375 3.1875 -1.359375q2.15625 0 3.40625 1.421875q1.25 1.421875 1.1875 4.375l-6.40625 0q0.03125 1.140625 0.609375 1.78125q0.59375 0.625 1.484375 0.625q0.59375 0 1.0 -0.328125q0.421875 -0.328125 0.625 -1.0625zm0.15625 -2.59375q-0.03125 -1.109375 -0.578125 -1.6875q-0.546875 -0.578125 -1.328125 -0.578125q-0.84375 0 -1.390625 0.609375q-0.546875 0.609375 -0.53125 1.65625l3.828125 0zm7.0787964 5.671875l-2.5625 0l0 -9.671875l2.375 0l0 1.375q0.609375 -0.984375 1.09375 -1.28125q0.484375 -0.3125 1.109375 -0.3125q0.875 0 1.6875 0.484375l-0.796875 2.234375q-0.640625 -0.421875 -1.203125 -0.421875q-0.53125 0 -0.90625 0.296875q-0.375 0.296875 -0.59375 1.078125q-0.203125 0.765625 -0.203125 3.234375l0 2.984375zm3.588379 -9.671875l2.71875 0l2.328125 6.859375l2.25 -6.859375l2.65625 0l-3.421875 9.3125l-0.609375 1.6875q-0.328125 0.84375 -0.640625 1.28125q-0.3125 0.453125 -0.703125 0.71875q-0.390625 0.28125 -0.96875 0.4375q-0.578125 0.15625 -1.3125 0.15625q-0.734375 0 -1.453125 -0.15625l-0.21875 -2.0q0.59375 0.125 1.078125 0.125q0.890625 0 1.3125 -0.53125q0.4375 -0.515625 0.671875 -1.328125l-3.6875 -9.703125zm10.875732 13.59375q0.765625 -1.609375 1.0625 -2.484375q0.3125 -0.859375 0.578125 -1.984375q0.265625 -1.140625 0.390625 -2.15625q0.125 -1.015625 0.125 -2.078125q0 -2.171875 -0.46875 -4.109375q-0.453125 -1.9375 -1.703125 -4.6875l1.734375 0q1.375 1.953125 2.140625 4.15625q0.765625 2.1875 0.765625 4.453125q0 1.90625 -0.609375 4.078125q-0.671875 2.4375 -2.25 4.8125l-1.765625 0z" fill-rule="nonzero"/><path fill="#000000" d="m250.0971 336.4265l0 0c0 2.046051 -1.6586609 3.704712 -3.704712 3.704712l0 -3.704712l0 0c0 1.0230408 -0.82933044 1.852356 -1.8523712 1.852356c-1.0230255 0 -1.852356 -0.8293152 -1.852356 -1.852356l0 3.704712l-141.35828 0l0 0c-2.0460663 0 -3.7047272 1.6586609 -3.7047272 3.7047424l0 44.456696c0 2.046051 1.6586609 3.704712 3.7047272 3.704712c2.0460587 0 3.7047195 -1.6586609 3.7047195 -3.704712l0 -3.7047424l141.35828 0c2.046051 0 3.704712 -1.6586609 3.704712 -3.704712zm-148.7677 11.114166c2.0460587 0 3.7047195 -1.6586609 3.7047195 -3.704712c0 -1.0230408 -0.82933044 -1.8523865 -1.8523636 -1.8523865c-1.0230255 0 -1.852356 0.8293457 -1.852356 1.8523865z" fill-rule="evenodd"/><path fill="#000000" d="m101.3294 347.54068c2.0460587 0 3.7047195 -1.6586609 3.7047195 -3.704712c0 -1.0230408 -0.82933044 -1.8523865 -1.8523636 -1.8523865c-1.0230255 0 -1.852356 0.8293457 -1.852356 1.8523865zm145.06299 -7.4094543c2.046051 0 3.704712 -1.6586609 3.704712 -3.704712c0 -2.0460815 -1.6586609 -3.7047424 -3.704712 -3.7047424c-2.0460663 0 -3.7047272 1.6586609 -3.7047272 3.7047424c0 1.0230408 0.82933044 1.852356 1.852356 1.852356c1.0230408 0 1.8523712 -0.8293152 1.8523712 -1.852356z" fill-rule="evenodd"/><path fill="#000000" fill-opacity="0.0" d="m97.62467 343.83597c0 -2.0460815 1.6586609 -3.7047424 3.7047272 -3.7047424l141.35828 0l0 -3.704712l0 0c0 -2.0460815 1.6586609 -3.7047424 3.7047272 -3.7047424c2.046051 0 3.704712 1.6586609 3.704712 3.7047424l0 44.456696c0 2.046051 -1.6586609 3.704712 -3.704712 3.704712l-141.35828 0l0 3.7047424c0 2.046051 -1.6586609 3.704712 -3.7047195 3.704712c-2.0460663 0 -3.7047272 -1.6586609 -3.7047272 -3.704712zm145.06299 -3.7047424l3.7047272 0c2.046051 0 3.704712 -1.6586609 3.704712 -3.704712m-3.704712 3.704712l0 -3.704712l0 0c0 1.0230408 -0.82933044 1.852356 -1.8523712 1.852356c-1.0230255 0 -1.852356 -0.8293152 -1.852356 -1.852356m-141.35828 11.114166l0 -3.704712l0 0c0 -1.0230408 0.82933044 -1.8523865 1.852356 -1.8523865c1.0230331 0 1.8523636 0.8293457 1.8523636 1.8523865c0 2.046051 -1.6586609 3.704712 -3.7047195 3.704712c-2.0460663 0 -3.7047272 -1.6586609 -3.7047272 -3.704712m7.4094467 0l0 40.751953" fill-rule="evenodd"/><path stroke="#595959" stroke-width="1.0" stroke-linejoin="round" stroke-linecap="butt" d="m97.62467 343.83597c0 -2.0460815 1.6586609 -3.7047424 3.7047272 -3.7047424l141.35828 0l0 -3.704712l0 0c0 -2.0460815 1.6586609 -3.7047424 3.7047272 -3.7047424c2.046051 0 3.704712 1.6586609 3.704712 3.7047424l0 44.456696c0 2.046051 -1.6586609 3.704712 -3.704712 3.704712l-141.35828 0l0 3.7047424c0 2.046051 -1.6586609 3.704712 -3.7047195 3.704712c-2.0460663 0 -3.7047272 -1.6586609 -3.7047272 -3.704712zm145.06299 -3.7047424l3.7047272 0c2.046051 0 3.704712 -1.6586609 3.704712 -3.704712m-3.704712 3.704712l0 -3.704712l0 0c0 1.0230408 -0.82933044 1.852356 -1.8523712 1.852356c-1.0230255 0 -1.852356 -0.8293152 -1.852356 -1.852356m-141.35828 11.114166l0 -3.704712l0 0c0 -1.0230408 0.82933044 -1.8523865 1.852356 -1.8523865c1.0230331 0 1.8523636 0.8293457 1.8523636 1.8523865c0 2.046051 -1.6586609 3.704712 -3.7047195 3.704712c-2.0460663 0 -3.7047272 -1.6586609 -3.7047272 -3.704712m7.4094467 0l0 40.751953" fill-rule="evenodd"/><path fill="#ffffff" d="m157.12538 347.61145q0.484375 0 0.890625 0.078125q0.421875 0.078125 0.765625 0.203125q0.34375 0.125 0.59375 0.265625q0.25 0.140625 0.40625 0.25l0 -0.515625l2.359375 0l0 3.90625l-2.5 0q0 -0.484375 -0.125 -0.796875q-0.109375 -0.328125 -0.3125 -0.53125q-0.1875 -0.203125 -0.453125 -0.28125q-0.265625 -0.09375 -0.578125 -0.09375q-0.421875 0 -0.71875 0.171875q-0.296875 0.15625 -0.484375 0.515625q-0.1875 0.359375 -0.296875 0.953125q-0.09375 0.59375 -0.09375 1.4375q0 0.875 0.09375 1.453125q0.109375 0.578125 0.3125 0.953125q0.21875 0.359375 0.546875 0.515625q0.34375 0.15625 0.796875 0.15625q0.3125 0 0.59375 -0.109375q0.28125 -0.125 0.5 -0.359375q0.21875 -0.25 0.34375 -0.609375q0.125 -0.375 0.125 -0.890625l2.5 0q0 0.921875 -0.296875 1.734375q-0.28125 0.796875 -0.890625 1.40625q-0.609375 0.609375 -1.546875 0.96875q-0.9375 0.359375 -2.21875 0.359375q-1.171875 0 -2.203125 -0.3125q-1.03125 -0.328125 -1.796875 -1.0q-0.765625 -0.671875 -1.21875 -1.71875q-0.453125 -1.0625 -0.453125 -2.546875q0 -1.46875 0.453125 -2.53125q0.46875 -1.0625 1.203125 -1.734375q0.75 -0.671875 1.703125 -0.984375q0.96875 -0.3125 2.0 -0.3125zm6.2053223 5.5625q0 -1.375 0.453125 -2.40625q0.46875 -1.046875 1.296875 -1.75q0.828125 -0.703125 1.96875 -1.046875q1.140625 -0.359375 2.515625 -0.359375q1.375 0 2.515625 0.359375q1.15625 0.34375 1.984375 1.046875q0.828125 0.703125 1.28125 1.75q0.453125 1.03125 0.453125 2.40625q0 1.34375 -0.46875 2.421875q-0.453125 1.078125 -1.421875 1.875q0.109375 0.140625 0.3125 0.265625q0.21875 0.109375 0.453125 0.109375q0.375 0 0.5625 -0.15625q0.203125 -0.171875 0.296875 -0.40625q0.09375 -0.234375 0.109375 -0.5q0.03125 -0.28125 0.046875 -0.484375l0.671875 0q0 1.875 -0.5625 2.78125q-0.546875 0.90625 -1.734375 0.90625q-0.8125 0 -1.359375 -0.390625q-0.53125 -0.390625 -0.90625 -1.125q-0.578125 0.140625 -1.0625 0.203125q-0.46875 0.078125 -1.171875 0.078125q-1.375 0 -2.515625 -0.34375q-1.140625 -0.359375 -1.96875 -1.0625q-0.828125 -0.703125 -1.296875 -1.75q-0.453125 -1.046875 -0.453125 -2.421875zm4.8125 0q0 0.484375 0.015625 0.875q0.015625 0.390625 0.0625 0.71875q0.21875 -0.21875 0.5625 -0.375q0.34375 -0.171875 0.828125 -0.171875q0.359375 0 0.6875 0.09375q0.34375 0.078125 0.625 0.21875q0.03125 -0.28125 0.046875 -0.609375q0.015625 -0.34375 0.015625 -0.75q0 -0.84375 -0.0625 -1.4375q-0.0625 -0.59375 -0.234375 -0.953125q-0.15625 -0.359375 -0.4375 -0.515625q-0.28125 -0.171875 -0.6875 -0.171875q-0.421875 0 -0.703125 0.171875q-0.265625 0.15625 -0.4375 0.515625q-0.15625 0.359375 -0.21875 0.953125q-0.0625 0.59375 -0.0625 1.4375zm1.421875 3.078125q0.734375 0 1.046875 -0.5q-0.234375 -0.328125 -0.578125 -0.53125q-0.328125 -0.203125 -0.6875 -0.203125q-0.421875 0 -0.59375 0.203125q-0.171875 0.1875 -0.171875 0.375q0 0.34375 0.296875 0.5q0.3125 0.15625 0.6875 0.15625zm7.171417 2.1875l0 -2.65625q0.625 0 0.890625 -0.15625q0.28125 -0.171875 0.28125 -0.640625l0 -3.625q0 -0.46875 -0.28125 -0.640625q-0.265625 -0.171875 -0.890625 -0.171875l0 -2.65625l7.578125 0q1.046875 0 1.765625 0.21875q0.71875 0.203125 1.15625 0.59375q0.4375 0.375 0.609375 0.921875q0.1875 0.53125 0.1875 1.1875q0 1.203125 -0.578125 1.921875q-0.578125 0.71875 -1.859375 0.78125l0 0.078125q0.625 0.046875 1.015625 0.234375q0.40625 0.1875 0.640625 0.484375q0.234375 0.296875 0.328125 0.71875q0.109375 0.421875 0.109375 0.9375l0 0.390625q0 0.171875 0.078125 0.3125q0.09375 0.125 0.296875 0.125q0.203125 0 0.28125 -0.125q0.09375 -0.140625 0.09375 -0.3125l0 -1.828125l0.828125 0l0 1.828125q0 0.515625 -0.15625 0.953125q-0.15625 0.421875 -0.515625 0.75q-0.34375 0.3125 -0.921875 0.484375q-0.5625 0.1875 -1.40625 0.1875q-0.828125 0 -1.375 -0.1875q-0.53125 -0.1875 -0.828125 -0.5q-0.296875 -0.328125 -0.421875 -0.75q-0.109375 -0.421875 -0.109375 -0.90625l0 -0.546875q0 -0.5625 -0.0625 -0.921875q-0.0625 -0.359375 -0.21875 -0.546875q-0.140625 -0.203125 -0.375 -0.265625q-0.234375 -0.0625 -0.578125 -0.0625l-0.171875 0l0 1.015625q0 0.390625 0.203125 0.5625q0.21875 0.15625 0.765625 0.15625l0 2.65625l-6.359375 0zm5.390625 -5.65625l0.625 0q0.609375 0 0.828125 -0.28125q0.234375 -0.296875 0.234375 -0.8125q0 -0.609375 -0.234375 -0.875q-0.21875 -0.265625 -0.828125 -0.265625l-0.625 0l0 2.234375zm17.199219 -1.0625l-2.375 0q-0.046875 -0.359375 -0.25 -0.671875q-0.1875 -0.3125 -0.484375 -0.546875q-0.28125 -0.234375 -0.640625 -0.359375q-0.34375 -0.125 -0.71875 -0.125q-0.453125 0 -0.734375 0.171875q-0.265625 0.171875 -0.265625 0.484375q0 0.296875 0.25 0.484375q0.25 0.171875 0.65625 0.3125q0.40625 0.125 0.921875 0.25q0.53125 0.125 1.0625 0.3125q0.546875 0.171875 1.0625 0.421875q0.53125 0.25 0.9375 0.65625q0.40625 0.390625 0.65625 0.96875q0.25 0.5625 0.25 1.375q0 0.84375 -0.375 1.453125q-0.359375 0.59375 -0.96875 0.984375q-0.609375 0.375 -1.421875 0.546875q-0.796875 0.1875 -1.65625 0.1875q-0.84375 0 -1.609375 -0.1875q-0.75 -0.1875 -1.546875 -0.625l0 0.625l-2.359375 0l0 -3.90625l2.359375 0q0.203125 0.84375 0.828125 1.328125q0.625 0.484375 1.40625 0.484375q0.515625 0 0.765625 -0.1875q0.265625 -0.203125 0.265625 -0.453125q0 -0.40625 -0.421875 -0.609375q-0.421875 -0.21875 -1.0625 -0.390625q-0.625 -0.171875 -1.375 -0.375q-0.75 -0.21875 -1.375 -0.609375q-0.625 -0.390625 -1.0625 -1.046875q-0.421875 -0.65625 -0.421875 -1.703125q0 -0.78125 0.328125 -1.375q0.34375 -0.609375 0.90625 -1.015625q0.578125 -0.421875 1.3125 -0.625q0.75 -0.21875 1.5625 -0.21875q1.140625 0 1.953125 0.265625q0.828125 0.265625 1.265625 0.5625l0 -0.671875l2.375 0l0 3.828125z" fill-rule="nonzero"/><path fill="#ffffff" d="m146.38467 372.54895l0 0.4375q0 0.375 0.1875 0.59375q0.1875 0.203125 0.6875 0.203125l0.734375 0l0 2.65625l-7.0 0l0 -2.65625q0.625 0 0.890625 -0.15625q0.28125 -0.171875 0.28125 -0.640625l0 -3.625q0 -0.46875 -0.28125 -0.640625q-0.265625 -0.171875 -0.890625 -0.171875l0 -2.65625l7.71875 0q1.0625 0 1.765625 0.25q0.71875 0.25 1.15625 0.703125q0.4375 0.453125 0.609375 1.09375q0.1875 0.625 0.1875 1.390625q0 0.78125 -0.1875 1.375q-0.171875 0.59375 -0.609375 1.015625q-0.4375 0.40625 -1.15625 0.625q-0.703125 0.203125 -1.765625 0.203125l-2.328125 0zm0 -1.6875l0.78125 0q0.59375 0 0.8125 -0.3125q0.234375 -0.328125 0.234375 -0.84375q0 -0.484375 -0.234375 -0.8125q-0.21875 -0.34375 -0.8125 -0.34375l-0.78125 0l0 2.3125zm10.165375 -1.3125q-0.359375 0 -0.625 0.0625q-0.25 0.046875 -0.4375 0.125q-0.1875 0.0625 -0.3125 0.15625q-0.125 0.078125 -0.21875 0.15625l0.078125 0.078125q0.140625 -0.078125 0.296875 -0.140625q0.15625 -0.078125 0.40625 -0.078125q0.421875 0 0.734375 0.28125q0.3125 0.265625 0.3125 0.875q0 0.5625 -0.46875 0.921875q-0.46875 0.34375 -1.265625 0.34375q-0.75 0 -1.203125 -0.4375q-0.4375 -0.4375 -0.4375 -1.234375q0 -0.4375 0.234375 -0.859375q0.25 -0.4375 0.75 -0.78125q0.515625 -0.34375 1.3125 -0.5625q0.796875 -0.21875 1.90625 -0.21875q1.328125 0 2.171875 0.25q0.84375 0.25 1.3125 0.640625q0.46875 0.390625 0.640625 0.890625q0.1875 0.5 0.1875 1.015625l0 2.796875q0 0.65625 0.03125 0.890625q0.046875 0.21875 0.328125 0.21875q0.21875 0 0.3125 -0.203125q0.09375 -0.21875 0.09375 -0.734375l0 -0.890625l0.8125 0l0 0.90625q0 0.640625 -0.109375 1.140625q-0.109375 0.5 -0.40625 0.859375q-0.296875 0.34375 -0.8125 0.53125q-0.515625 0.1875 -1.3125 0.1875q-0.734375 0 -1.21875 -0.15625q-0.46875 -0.15625 -0.75 -0.375q-0.265625 -0.234375 -0.390625 -0.484375q-0.109375 -0.25 -0.109375 -0.4375l-0.125 0q-0.03125 0.296875 -0.25 0.5625q-0.203125 0.25 -0.5625 0.46875q-0.359375 0.203125 -0.859375 0.328125q-0.5 0.125 -1.15625 0.125q-0.609375 0 -1.125 -0.125q-0.5 -0.125 -0.859375 -0.375q-0.34375 -0.25 -0.546875 -0.65625q-0.1875 -0.40625 -0.1875 -0.96875q0 -0.671875 0.375 -1.0625q0.390625 -0.40625 0.96875 -0.640625q0.59375 -0.234375 1.28125 -0.375q0.703125 -0.15625 1.28125 -0.359375q0.59375 -0.203125 0.96875 -0.53125q0.390625 -0.34375 0.390625 -0.9375q0 -0.53125 -0.34375 -0.859375q-0.328125 -0.328125 -1.09375 -0.328125zm1.4375 3.09375q-0.15625 0.234375 -0.390625 0.375q-0.234375 0.140625 -0.453125 0.28125q-0.21875 0.125 -0.375 0.3125q-0.15625 0.171875 -0.15625 0.484375q0 0.234375 0.125 0.421875q0.125 0.1875 0.5 0.1875q0.328125 0 0.53125 -0.25q0.21875 -0.265625 0.21875 -0.75l0 -1.0625zm10.699249 -6.75l0 2.65625l2.140625 0l0 2.65625l-2.140625 0l0 2.203125q0 0.46875 0.125 0.78125q0.140625 0.296875 0.5625 0.296875q0.234375 0 0.359375 -0.09375q0.140625 -0.09375 0.21875 -0.234375q0.09375 -0.15625 0.109375 -0.34375q0.03125 -0.1875 0.03125 -0.40625l0 -1.0625l0.8125 0l0 1.140625q0 0.703125 -0.140625 1.3125q-0.140625 0.59375 -0.5 1.03125q-0.359375 0.4375 -0.96875 0.6875q-0.609375 0.265625 -1.53125 0.265625q-1.015625 0 -1.625 -0.265625q-0.609375 -0.25 -0.921875 -0.671875q-0.3125 -0.4375 -0.421875 -1.03125q-0.09375 -0.609375 -0.09375 -1.328125l0 -2.28125l-1.125 0l0 -2.359375q0.546875 0 1.0 -0.234375q0.46875 -0.234375 0.796875 -0.640625q0.328125 -0.40625 0.515625 -0.9375q0.1875 -0.53125 0.1875 -1.140625l2.609375 0zm7.6644745 0l0 2.65625l2.140625 0l0 2.65625l-2.140625 0l0 2.203125q0 0.46875 0.125 0.78125q0.140625 0.296875 0.5625 0.296875q0.234375 0 0.359375 -0.09375q0.140625 -0.09375 0.21875 -0.234375q0.09375 -0.15625 0.109375 -0.34375q0.03125 -0.1875 0.03125 -0.40625l0 -1.0625l0.8125 0l0 1.140625q0 0.703125 -0.140625 1.3125q-0.140625 0.59375 -0.5 1.03125q-0.359375 0.4375 -0.96875 0.6875q-0.609375 0.265625 -1.53125 0.265625q-1.015625 0 -1.625 -0.265625q-0.609375 -0.25 -0.921875 -0.671875q-0.3125 -0.4375 -0.421875 -1.03125q-0.09375 -0.609375 -0.09375 -1.328125l0 -2.28125l-1.125 0l0 -2.359375q0.546875 0 1.0 -0.234375q0.46875 -0.234375 0.796875 -0.640625q0.328125 -0.40625 0.515625 -0.9375q0.1875 -0.53125 0.1875 -1.140625l2.609375 0zm6.7425995 7.046875q0.03125 1.0625 0.40625 1.46875q0.375 0.40625 1.078125 0.40625q0.234375 0 0.453125 -0.0625q0.234375 -0.078125 0.421875 -0.21875q0.203125 -0.15625 0.34375 -0.40625q0.140625 -0.265625 0.171875 -0.65625l2.609375 0q-0.140625 0.921875 -0.53125 1.546875q-0.375 0.625 -0.984375 1.015625q-0.59375 0.375 -1.390625 0.546875q-0.796875 0.171875 -1.78125 0.171875q-1.0 0 -1.890625 -0.265625q-0.890625 -0.25 -1.5625 -0.78125q-0.671875 -0.53125 -1.046875 -1.328125q-0.375 -0.796875 -0.375 -1.890625q0 -1.0625 0.359375 -1.84375q0.359375 -0.796875 1.0 -1.328125q0.640625 -0.546875 1.53125 -0.8125q0.890625 -0.265625 1.9375 -0.265625q1.3125 0 2.25 0.34375q0.9375 0.34375 1.53125 0.953125q0.59375 0.609375 0.875 1.484375q0.28125 0.859375 0.265625 1.921875l-5.671875 0zm1.0625 -2.78125q-0.5 0 -0.75 0.359375q-0.234375 0.359375 -0.3125 1.171875l2.09375 0q-0.03125 -0.703125 -0.296875 -1.109375q-0.25 -0.421875 -0.734375 -0.421875zm9.754364 -1.609375l-0.125 1.96875l0.125 0q0.25 -1.125 0.828125 -1.703125q0.578125 -0.578125 1.515625 -0.578125q0.546875 0 0.9375 0.171875q0.40625 0.171875 0.640625 0.46875q0.25 0.296875 0.359375 0.6875q0.109375 0.375 0.109375 0.78125q0 0.328125 -0.109375 0.65625q-0.09375 0.328125 -0.3125 0.59375q-0.21875 0.265625 -0.578125 0.4375q-0.34375 0.15625 -0.859375 0.15625q-0.71875 0 -1.140625 -0.359375q-0.40625 -0.375 -0.40625 -0.890625q0 -0.25 0.0625 -0.421875q0.0625 -0.171875 0.109375 -0.28125q0.0625 -0.109375 0.078125 -0.15625q0.03125 -0.0625 -0.03125 -0.0625q-0.15625 0 -0.34375 0.34375q-0.171875 0.34375 -0.171875 1.078125l0 1.640625q0 0.375 0.125 0.546875q0.140625 0.15625 0.53125 0.15625l0.421875 0l0 2.65625l-6.015625 0l0 -2.65625l0.421875 0q0.28125 0 0.4375 -0.1875q0.15625 -0.1875 0.15625 -0.453125l0 -1.359375q0 -0.34375 -0.203125 -0.453125q-0.1875 -0.125 -0.4375 -0.125l-0.375 0l0 -2.65625l4.25 0zm11.725754 3.3125q0 -0.28125 -0.078125 -0.4375q-0.0625 -0.171875 -0.171875 -0.265625q-0.09375 -0.09375 -0.234375 -0.109375q-0.125 -0.03125 -0.234375 -0.03125q-0.46875 0 -0.703125 0.28125q-0.234375 0.265625 -0.234375 0.765625l0 1.015625q0 0.375 0.125 0.546875q0.140625 0.15625 0.53125 0.15625l0.375 0l0 2.65625l-5.96875 0l0 -2.65625l0.421875 0q0.28125 0 0.4375 -0.1875q0.15625 -0.1875 0.15625 -0.453125l0 -1.359375q0 -0.34375 -0.203125 -0.453125q-0.1875 -0.125 -0.4375 -0.125l-0.375 0l0 -2.65625l4.25 0l-0.15625 1.96875l0.125 0q0.15625 -1.09375 0.953125 -1.6875q0.8125 -0.59375 2.203125 -0.59375q0.984375 0 1.59375 0.28125q0.625 0.265625 0.953125 0.703125q0.34375 0.421875 0.46875 0.921875q0.125 0.5 0.125 0.921875l0 2.015625q0 0.375 0.125 0.546875q0.140625 0.15625 0.515625 0.15625l0.390625 0l0 2.65625l-4.953125 0l0 -4.578125z" fill-rule="nonzero"/></g></svg>