<?xml version="1.0" standalone="no"?>
<!DOCTYPE svg PUBLIC "-//W3C//DTD SVG 20010904//EN"
 "http://www.w3.org/TR/2001/REC-SVG-20010904/DTD/svg10.dtd">
<svg version="1.0" xmlns="http://www.w3.org/2000/svg"
 width="1028.000000pt" height="506.000000pt" viewBox="0 0 1028.000000 506.000000"
 preserveAspectRatio="xMidYMid meet">

<g transform="translate(0.000000,506.000000) scale(0.100000,-0.100000)"
fill="#000000" stroke="none">
<path d="M1574 4818 c-6 -10 -5 -4551 2 -4557 8 -8 8437 -14 8492 -6 l42 6 0
2280 0 2279 -4266 2 c-2346 2 -4268 0 -4270 -4z m8506 -2278 l0 -2260 -4242 2
-4243 3 -3 1121 -2 1121 287 6 c159 4 371 10 472 14 153 5 183 4 179 -7 -4
-12 -47 -32 -120 -57 -10 -3 -18 -9 -18 -14 0 -14 19 -20 37 -11 22 12 74 34
148 62 69 28 85 36 82 45 -2 5 -12 11 -23 13 -10 2 -29 7 -41 13 -13 5 -35 14
-50 20 -16 6 -36 15 -45 20 -10 5 -27 9 -37 9 -11 0 -23 5 -26 10 -9 14 -45
12 -45 -3 0 -11 64 -37 93 -37 8 0 21 -8 31 -18 16 -18 8 -19 -226 -25 -132
-4 -344 -7 -470 -7 l-228 0 0 1113 c0 613 3 1117 7 1120 3 4 1914 7 4245 7
l4238 0 0 -2260z"/>
<path d="M5289 4683 c-6 -16 -15 -36 -20 -45 -5 -10 -9 -26 -9 -36 0 -10 -3
-22 -7 -26 -11 -11 -32 -79 -27 -88 11 -18 42 -7 48 17 12 46 106 42 106 -5 0
-13 7 -20 19 -20 25 0 37 18 22 33 -6 6 -11 21 -11 33 0 13 -4 26 -10 29 -5 3
-10 15 -10 26 0 10 -4 27 -9 37 -5 9 -14 29 -20 45 -8 19 -18 27 -36 27 -18 0
-28 -8 -36 -27z m56 -81 c7 -24 -13 -39 -39 -29 -13 5 -13 10 1 37 16 33 26
31 38 -8z"/>
<path d="M5560 4681 c0 -29 -2 -31 -37 -31 -44 0 -56 -6 -72 -37 -16 -32 -14
-64 9 -101 19 -31 22 -32 81 -30 l61 3 0 110 c0 104 -1 110 -21 113 -17 3 -21
-2 -21 -27z m-6 -83 c10 -37 7 -56 -10 -73 -15 -15 -18 -15 -35 1 -21 19 -25
64 -7 82 19 19 45 14 52 -10z"/>
<path d="M5759 4703 c-1 -5 -2 -17 -3 -28 -1 -16 -10 -21 -46 -25 -54 -6 -73
-33 -67 -98 6 -57 27 -72 97 -68 l55 2 3 112 c3 107 2 112 -18 112 -11 0 -21
-3 -21 -7z m-11 -129 c4 -53 -18 -76 -48 -49 -11 10 -20 26 -20 37 0 30 23 59
45 56 16 -2 21 -12 23 -44z"/>
<path d="M5832 4568 c3 -75 5 -83 23 -83 17 0 20 8 23 56 3 53 5 58 33 69 43
18 30 35 -30 38 l-52 3 3 -83z"/>
<path d="M5966 4628 c-25 -35 -21 -100 7 -126 38 -36 117 -26 117 15 0 16 -32
17 -47 2 -16 -16 -43 -3 -43 21 0 17 6 20 51 20 l51 0 -7 33 c-11 47 -23 57
-71 57 -33 0 -46 -5 -58 -22z m89 -18 c7 -11 -35 -31 -47 -23 -5 2 -8 11 -8
19 0 16 45 20 55 4z"/>
<path d="M6135 4620 c-7 -34 7 -60 34 -60 9 0 27 -9 41 -20 23 -17 24 -19 6
-26 -10 -4 -27 -2 -37 4 -23 14 -59 16 -59 3 0 -19 45 -41 84 -41 42 0 65 20
66 57 0 23 -46 53 -82 53 -10 0 -18 7 -18 15 0 17 45 21 55 5 6 -10 45 -14 45
-4 0 3 -5 14 -10 25 -9 15 -22 19 -65 19 -51 0 -54 -1 -60 -30z"/>
<path d="M6313 4638 c-30 -38 -16 -68 37 -82 36 -9 54 -22 46 -35 -9 -14 -46
-15 -46 -1 0 6 -13 10 -30 10 -36 0 -38 -12 -5 -34 29 -19 96 -21 113 -4 7 7
12 26 12 43 0 23 -7 33 -27 43 -15 6 -35 12 -45 12 -10 0 -18 7 -18 15 0 17
35 21 45 5 9 -15 45 -12 45 3 0 7 -5 18 -12 25 -16 16 -103 15 -115 0z"/>
<path d="M7765 3969 c-27 -4 -74 -11 -103 -15 -29 -3 -55 -11 -58 -15 -3 -5
-20 -9 -39 -9 -19 0 -37 -4 -40 -10 -3 -5 -15 -10 -26 -10 -10 0 -27 -4 -37
-9 -9 -5 -28 -13 -42 -19 -49 -19 -216 -102 -251 -124 -255 -162 -449 -377
-576 -638 -68 -141 -103 -246 -132 -400 -11 -61 -24 -183 -22 -217 2 -44 -22
-33 -106 49 -47 45 -91 89 -98 96 -18 16 -35 15 -35 -2 0 -7 16 -26 35 -41 42
-32 76 -67 71 -73 -3 -2 -22 4 -43 13 -21 9 -47 21 -58 25 -11 4 -51 22 -90
40 -38 18 -79 36 -90 40 -31 11 -78 31 -97 41 -10 5 -25 9 -33 9 -8 0 -23 4
-33 9 -75 42 -372 66 -492 41 -98 -21 -257 -62 -305 -80 -11 -4 -40 -13 -65
-20 -25 -6 -53 -16 -62 -21 -10 -5 -29 -9 -42 -9 -14 0 -28 -4 -31 -10 -3 -5
-19 -10 -35 -10 -16 0 -32 -4 -35 -10 -9 -15 -35 -12 -35 3 0 7 11 35 24 63
23 49 47 100 87 192 11 26 31 70 44 97 64 140 75 166 75 175 0 7 -366 10
-1020 10 l-1021 0 -30 -67 c-17 -38 -44 -95 -59 -128 -50 -107 -80 -175 -80
-180 0 -3 -22 -52 -50 -109 -27 -57 -50 -107 -50 -111 0 -4 -13 -35 -29 -69
-16 -33 -39 -83 -51 -111 -43 -98 -54 -121 -102 -224 -27 -57 -50 -113 -51
-125 l-2 -21 1000 -3 c550 -1 1010 0 1021 3 12 3 27 19 34 37 14 34 49 112
100 223 48 104 85 186 111 247 13 32 27 58 31 58 6 0 102 -113 186 -218 9 -12
15 -13 23 -5 8 8 1 22 -27 53 -44 47 -58 69 -51 77 6 6 70 -28 75 -39 2 -5 7
-8 12 -8 4 0 50 -26 101 -59 106 -66 269 -151 291 -151 8 0 18 -4 24 -8 5 -5
29 -14 54 -21 25 -7 55 -17 68 -22 33 -13 183 -11 239 3 78 19 193 57 250 84
30 13 56 24 58 24 3 0 42 18 87 39 84 39 154 71 218 98 19 8 43 19 53 24 10 5
22 7 26 4 5 -2 12 -49 15 -102 6 -92 15 -144 38 -238 21 -87 36 -131 59 -177
5 -10 9 -23 9 -30 0 -24 90 -192 156 -290 70 -106 233 -278 341 -361 34 -26
64 -47 67 -47 3 0 24 -13 48 -29 63 -42 247 -129 323 -152 22 -6 49 -15 60
-20 11 -4 36 -10 55 -14 19 -3 58 -10 85 -16 134 -28 428 -28 570 0 102 20
189 44 250 71 11 4 40 16 65 25 56 21 179 86 239 128 173 117 326 272 446 452
45 68 135 245 135 267 0 8 4 18 8 24 5 5 14 29 21 54 7 25 17 53 22 62 5 10 9
30 9 46 0 15 4 32 9 38 24 25 44 311 31 451 -14 160 -20 206 -31 218 -5 5 -9
20 -9 35 -1 26 -41 155 -53 167 -4 3 -7 14 -7 24 0 9 -13 43 -30 74 -16 31
-30 62 -30 67 0 6 -13 30 -30 55 -16 24 -30 46 -30 49 0 6 -89 133 -119 169
-58 70 -224 225 -292 272 -111 76 -258 156 -334 181 -22 7 -49 17 -60 21 -11
5 -33 14 -48 20 -15 6 -39 11 -52 11 -13 0 -26 4 -29 9 -3 4 -27 11 -53 15
-27 3 -79 10 -118 15 -83 12 -329 12 -400 0z m395 -28 c19 -6 48 -11 65 -11
28 0 141 -26 210 -48 92 -29 222 -88 290 -132 22 -14 48 -29 56 -35 125 -77
290 -231 387 -360 93 -123 232 -396 232 -456 0 -10 4 -20 9 -23 5 -3 11 -20
14 -38 3 -18 11 -55 17 -83 6 -27 15 -93 20 -145 5 -52 12 -107 15 -122 10
-41 -27 -346 -46 -380 -5 -10 -9 -25 -9 -35 0 -9 -5 -33 -11 -52 -16 -49 -24
-71 -81 -208 -7 -18 -16 -33 -20 -33 -5 0 -8 -6 -8 -14 0 -16 -60 -119 -72
-124 -5 -2 -8 -9 -8 -16 0 -7 -9 -21 -20 -31 -11 -10 -20 -22 -20 -27 0 -4
-32 -46 -71 -92 -72 -87 -193 -195 -296 -264 -65 -45 -221 -132 -234 -132 -5
0 -17 -4 -27 -9 -9 -5 -30 -14 -47 -21 -16 -7 -38 -16 -47 -21 -10 -5 -27 -9
-37 -9 -11 0 -22 -4 -25 -9 -3 -5 -23 -11 -43 -14 -21 -3 -60 -11 -88 -17 -97
-22 -289 -32 -418 -21 -132 11 -252 31 -302 50 -11 5 -38 14 -60 20 -83 25
-241 102 -335 164 -139 89 -283 223 -370 340 -19 27 -45 61 -57 76 -13 16 -23
32 -23 36 0 3 -13 25 -28 48 -59 89 -125 249 -161 395 -6 23 -15 59 -21 80
-36 145 -32 417 10 607 6 28 14 65 17 83 3 18 9 35 14 38 5 3 9 14 9 25 0 10
4 27 9 37 5 9 13 28 19 42 71 178 177 343 321 495 150 159 368 302 556 366 33
11 69 24 80 29 30 13 144 35 310 60 74 11 278 5 325 -9z m-3206 -839 c2 -4 -2
-21 -9 -37 -8 -17 -28 -61 -46 -100 -17 -38 -42 -92 -54 -120 -12 -27 -37 -84
-55 -125 -18 -41 -45 -102 -60 -135 -28 -62 -55 -121 -97 -215 -14 -30 -40
-87 -59 -127 -19 -40 -34 -74 -34 -77 0 -2 -16 -38 -36 -80 l-35 -76 -995 0
c-832 0 -994 2 -994 14 0 12 31 87 85 201 33 71 69 150 137 305 33 74 73 162
88 195 27 60 47 104 90 200 39 88 73 160 83 173 7 9 219 12 998 12 543 0 990
-4 993 -8z m796 -387 c25 -8 70 -22 100 -30 30 -9 66 -21 80 -27 14 -6 34 -14
45 -18 11 -4 41 -17 68 -29 26 -11 68 -30 95 -42 26 -12 55 -25 64 -30 10 -5
23 -9 30 -9 7 0 24 -9 38 -20 l25 -20 -75 3 c-42 1 -77 -2 -80 -8 -3 -6 39
-11 115 -13 66 -1 126 -5 134 -7 20 -8 -10 -28 -80 -55 -30 -12 -81 -34 -114
-49 -208 -98 -283 -131 -299 -131 -8 0 -18 -4 -21 -10 -3 -5 -17 -10 -30 -10
-13 0 -27 -4 -30 -10 -3 -5 -21 -10 -40 -10 -19 0 -37 -4 -40 -10 -4 -6 -55
-10 -120 -10 -65 0 -116 4 -120 10 -3 6 -17 10 -31 10 -31 0 -197 73 -284 125
-179 107 -246 145 -257 145 -7 0 -17 8 -22 18 -9 17 -6 18 47 14 31 -2 62 -8
68 -13 11 -9 24 -2 24 12 0 12 -32 21 -105 30 -149 18 -185 36 -108 52 21 4
50 10 66 14 15 3 30 9 33 14 3 5 14 9 26 9 18 0 122 30 173 51 11 4 34 10 50
14 17 3 61 13 98 20 38 8 74 18 80 22 40 24 317 23 397 -2z"/>
<path d="M7637 2533 c-3 -10 -20 -58 -37 -106 -24 -64 -30 -91 -22 -99 13 -13
42 6 42 28 0 10 14 14 50 14 43 0 50 -3 50 -20 0 -11 4 -20 9 -20 5 0 16 -3
25 -6 12 -5 16 0 16 19 0 14 -4 29 -10 32 -5 3 -10 15 -10 26 0 10 -4 27 -9
37 -17 34 -30 67 -33 87 -4 28 -63 34 -71 8z m51 -80 c17 -38 15 -43 -13 -43
-21 0 -25 5 -25 28 0 48 19 56 38 15z"/>
<path d="M7985 2531 c-3 -6 -3 -11 1 -11 4 0 -1 -9 -11 -20 -17 -19 -17 -21 0
-40 13 -15 16 -30 13 -64 -6 -50 -2 -61 29 -70 29 -9 38 9 19 36 -20 28 -20
68 -2 93 12 17 11 23 -3 44 -9 14 -15 28 -13 31 6 10 -26 11 -33 1z"/>
<path d="M7826 2479 c-22 -17 -26 -28 -26 -71 0 -57 25 -87 72 -88 32 0 85 41
74 58 -10 17 -43 15 -50 -3 -9 -23 -35 -18 -48 10 -22 48 21 97 52 60 15 -18
36 -19 46 -3 10 16 -41 58 -70 58 -13 0 -35 -9 -50 -21z"/>
<path d="M8095 2474 c-31 -33 -33 -88 -5 -124 15 -20 28 -25 63 -25 63 0 87
24 87 86 0 39 -4 51 -26 68 -38 30 -89 28 -119 -5z m95 -63 c0 -42 -17 -56
-51 -46 -24 8 -26 61 -3 86 26 29 54 8 54 -40z"/>
<path d="M8335 2490 c-3 -5 -19 -7 -35 -3 l-30 6 0 -81 c0 -64 3 -81 16 -86
27 -10 34 3 34 64 0 53 2 59 23 62 26 4 38 48 13 48 -8 0 -18 -4 -21 -10z"/>
<path d="M3154 2647 c-2 -7 -3 -58 -2 -113 3 -91 5 -99 23 -99 18 0 20 6 17
70 l-2 70 20 -25 c11 -14 20 -40 20 -60 0 -37 14 -60 36 -60 16 0 26 25 33 85
8 67 25 59 29 -12 3 -60 15 -84 31 -68 6 6 11 57 12 115 l2 105 -36 3 c-34 3
-36 2 -42 -35 -9 -50 -27 -103 -36 -103 -9 0 -19 27 -19 54 0 13 -5 37 -11 55
-9 25 -16 31 -40 31 -16 0 -32 -6 -35 -13z"/>
<path d="M3582 2648 c7 -20 48 -23 48 -4 0 11 -9 16 -26 16 -16 0 -24 -5 -22
-12z"/>
<path d="M3680 2545 c0 -96 3 -115 15 -115 12 0 15 19 15 115 0 96 -3 115 -15
115 -12 0 -15 -19 -15 -115z"/>
<path d="M3760 2546 c0 -94 3 -116 14 -116 8 0 17 4 20 9 4 5 18 5 34 -1 23
-9 33 -7 55 7 24 15 27 23 27 75 0 68 -13 83 -73 84 -38 1 -42 3 -42 26 0 15
-6 26 -17 28 -16 3 -18 -7 -18 -112z m98 12 c26 -26 8 -88 -25 -88 -7 0 -19
13 -28 30 -13 24 -13 33 -3 50 14 23 38 26 56 8z"/>
<path d="M3451 2601 c-27 -7 -49 -36 -38 -48 4 -4 17 -2 27 5 27 17 60 15 60
-3 0 -8 -9 -15 -20 -15 -10 0 -31 -5 -45 -12 -19 -9 -25 -19 -25 -43 0 -18 6
-37 13 -43 17 -15 132 -10 131 6 -1 7 -2 36 -2 65 -1 29 -8 60 -14 69 -16 19
-55 28 -87 19z m49 -105 c0 -20 -25 -37 -44 -30 -19 7 -20 16 -4 32 16 16 48
15 48 -2z"/>
<path d="M3978 2593 c-25 -16 -28 -23 -28 -74 0 -49 3 -59 25 -73 32 -21 74
-20 105 4 21 16 25 27 25 69 0 32 -6 56 -16 66 -24 24 -80 28 -111 8z m80 -35
c19 -19 14 -65 -9 -82 -27 -19 -45 -11 -57 24 -18 49 32 92 66 58z"/>
<path d="M3587 2594 c-9 -9 -9 -126 -1 -148 3 -9 15 -16 25 -16 17 0 19 8 19
75 0 41 1 78 3 83 3 9 -37 15 -46 6z"/>
<path d="M4149 2571 c26 -36 26 -59 1 -91 -11 -14 -20 -31 -20 -37 0 -21 38
-15 50 7 6 11 19 20 29 20 10 0 21 -9 24 -20 3 -12 14 -20 26 -20 14 0 21 6
21 20 0 11 -3 20 -7 20 -8 0 -33 48 -33 62 0 5 9 18 20 30 11 12 20 25 20 30
0 15 -48 8 -54 -8 -6 -15 -8 -15 -31 0 -13 9 -34 16 -45 16 l-21 0 20 -29z"/>
<path d="M1262 2639 c2 -8 33 -24 68 -35 35 -12 66 -27 68 -34 4 -11 -89 -12
-494 -5 -709 13 -806 13 -811 -2 -4 -10 33 -13 164 -13 92 0 385 -5 651 -12
421 -10 521 -17 470 -32 -87 -25 -113 -35 -116 -45 -5 -14 29 -14 65 0 15 6
37 15 48 19 11 4 31 12 45 18 22 9 74 26 119 39 20 5 4 16 -44 32 -22 7 -59
21 -82 32 -24 10 -49 19 -56 19 -7 0 -17 4 -22 9 -6 5 -25 12 -44 16 -26 5
-32 4 -29 -6z"/>
</g>
</svg>
